<?xml version="1.0" encoding="utf-8"?>
<!-- Generator: Adobe Illustrator 21.0.0, SVG Export Plug-In . SVG Version: 6.00 Build 0)  -->
<svg version="1.0" xmlns="http://www.w3.org/2000/svg" xmlns:xlink="http://www.w3.org/1999/xlink" x="0px" y="0px"
	 viewBox="0 0 134 131.1" style="enable-background:new 0 0 134 131.1;" xml:space="preserve">
<style type="text/css">
	.st0{fill:#FAF4E9;}
	.st1{fill:none;stroke:#1E1F21;stroke-width:2;stroke-miterlimit:10;}
	.st2{fill:#62AE54;}
	.st3{fill:#E94546;}
	.st4{opacity:0.52;fill:#E94546;}
	.st5{fill:#1E1F21;}
	.st6{display:none;fill:url(#SVGID_1_);}
	.st7{fill:none;stroke:#FAF4E9;stroke-width:2;stroke-miterlimit:10;}
	.st8{display:none;fill:#FAF4E9;}
	.st9{display:none;}
	.st10{display:inline;}
	.st11{fill:url(#SVGID_2_);}
	.st12{clip-path:url(#SVGID_4_);}
	.st13{clip-path:url(#SVGID_6_);fill:#63A38A;}
	.st14{clip-path:url(#SVGID_6_);fill:url(#);}
	.st15{clip-path:url(#SVGID_6_);}
	.st16{clip-path:url(#SVGID_8_);fill:none;stroke:url(#);stroke-miterlimit:10;}
	.st17{clip-path:url(#SVGID_8_);}
	.st18{clip-path:url(#SVGID_10_);}
	.st19{clip-path:url(#SVGID_12_);fill:#EDDFB1;}
	.st20{clip-path:url(#SVGID_12_);fill:#63A38A;}
	.st21{clip-path:url(#SVGID_12_);fill:#E83F39;}
	.st22{clip-path:url(#SVGID_12_);fill:#334A5B;}
	.st23{clip-path:url(#SVGID_14_);}
	.st24{clip-path:url(#SVGID_16_);fill:#EDDFB1;}
	.st25{clip-path:url(#SVGID_8_);fill:#334A5B;}
	.st26{clip-path:url(#SVGID_8_);fill:url(#);}
	.st27{clip-path:url(#SVGID_18_);fill:url(#);}
	.st28{clip-path:url(#SVGID_20_);fill:#334A5B;}
	.st29{clip-path:url(#SVGID_20_);fill:#63A38A;}
	.st30{clip-path:url(#SVGID_20_);fill:none;stroke:#EDDFB1;stroke-width:8;stroke-miterlimit:10;}
	.st31{display:none;opacity:0.48;}
	.st32{fill:#46BBC2;}
	.st33{display:inline;fill:#46BBC2;}
</style>
<g id="Warstwa_1">
</g>
<g id="strona_główna">
	<g>
		<g>
			<path class="st0" d="M7.7,70.4l17.6-45.9h5.8l17.4,45.9H43L31.8,40.6c-0.3-0.8-0.6-1.8-1-2.9c-0.4-1.1-0.8-2.3-1.2-3.5
				c-0.4-1.2-0.8-2.4-1.2-3.5c-0.4-1.1-0.7-2.1-1-3h1.3c-0.4,1.1-0.7,2.2-1.1,3.3s-0.8,2.2-1.1,3.3c-0.4,1.1-0.8,2.2-1.2,3.3
				c-0.4,1.1-0.8,2.2-1.2,3.3L12.9,70.4H7.7z M15.2,57.7l1.9-5h21.7l2.1,5H15.2z"/>
			<path class="st0" d="M56.9,70.4V24.5h4.7l30,39.7l-0.9,1.2c-0.1-0.7-0.2-1.7-0.3-3.2c-0.1-1.4-0.1-3-0.2-4.8
				c-0.1-1.8-0.1-3.6-0.2-5.5s-0.1-3.8-0.1-5.6c0-1.8,0-3.5,0-5V24.5H95v45.9h-4.8L60.3,31.2l0.8-1.4c0.1,1.7,0.2,3.5,0.4,5.2
				c0.1,1.7,0.2,3.3,0.3,4.9c0.1,1.6,0.1,3,0.2,4.3c0,1.3,0.1,2.4,0.1,3.3c0,0.9,0,1.6,0,2v20.9H56.9z"/>
			<path class="st0" d="M106.4,70.4v-4.9h7.4V29.3h-7.4v-4.9h19.9v4.9h-7.4v36.2h7.4v4.9H106.4z"/>
		</g>
		<g>
			<path class="st0" d="M22.1,106.7H7.7v-1.6l9-5.5l0,0.7l-9-5.6v-1.5h14.4v1.6h-6.6c-1.2,0-2.3,0-3.3-0.1c-1,0-2-0.1-2.9-0.2
				l0.6-0.3l8.1,5.2v1.1l-8,5l-0.7-0.2c0.9-0.1,1.9-0.2,2.8-0.2c1,0,2.1-0.1,3.4-0.1h6.6V106.7z"/>
			<path class="st0" d="M22.1,90.6L7.7,85.1v-1.8l14.4-5.5v1.8l-9.3,3.5c-0.3,0.1-0.6,0.2-0.9,0.3c-0.3,0.1-0.7,0.2-1.1,0.4
				c-0.4,0.1-0.7,0.3-1.1,0.4c-0.4,0.1-0.7,0.2-0.9,0.3V84c0.3,0.1,0.7,0.2,1,0.3c0.3,0.1,0.7,0.2,1,0.4c0.3,0.1,0.7,0.2,1,0.4
				c0.3,0.1,0.7,0.2,1,0.4l9.2,3.5V90.6z M18.1,88.3l-1.6-0.6v-6.8l1.6-0.7V88.3z"/>
		</g>
		<g>
			<path class="st0" d="M37.5,106.3v-25h-8v-3H49v3h-8.3v25H37.5z"/>
			<path class="st0" d="M53,106.3v-3h4.5V81.1H53v-3h12.2v3h-4.5v22.1h4.5v3H53z"/>
			<path class="st0" d="M83.1,106.7c-2,0-3.8-0.4-5.5-1.1c-1.7-0.7-3.1-1.7-4.4-3c-1.2-1.3-2.2-2.8-2.9-4.6c-0.7-1.8-1-3.7-1-5.8
				c0-2.1,0.3-4,1-5.8c0.7-1.8,1.6-3.3,2.9-4.6c1.2-1.3,2.7-2.3,4.4-3c1.7-0.7,3.5-1.1,5.5-1.1c2,0,3.8,0.4,5.5,1.1s3.1,1.7,4.4,3
				c1.2,1.3,2.2,2.8,2.9,4.6c0.7,1.8,1,3.7,1,5.8c0,2.1-0.3,4-1,5.7c-0.7,1.8-1.6,3.3-2.9,4.6c-1.2,1.3-2.7,2.3-4.4,3
				S85.1,106.7,83.1,106.7z M83.1,103.6c1.5,0,2.9-0.3,4.2-0.8c1.3-0.5,2.4-1.3,3.3-2.3c0.9-1,1.7-2.2,2.2-3.6
				c0.5-1.4,0.8-2.9,0.8-4.5c0-1.7-0.3-3.2-0.8-4.6c-0.5-1.4-1.3-2.6-2.2-3.6c-0.9-1-2.1-1.8-3.3-2.4c-1.3-0.6-2.7-0.8-4.2-0.8
				c-1.5,0-2.9,0.3-4.2,0.8c-1.3,0.6-2.4,1.3-3.3,2.4c-0.9,1-1.7,2.2-2.2,3.6c-0.5,1.4-0.8,2.9-0.8,4.6c0,1.6,0.3,3.1,0.8,4.5
				c0.5,1.4,1.2,2.6,2.2,3.6c0.9,1,2.1,1.8,3.3,2.3C80.2,103.3,81.6,103.6,83.1,103.6z"/>
			<path class="st0" d="M103,106.3V78.2h2.8l18.4,24.3l-0.6,0.7c-0.1-0.4-0.1-1.1-0.2-1.9c0-0.9-0.1-1.8-0.1-2.9
				c0-1.1-0.1-2.2-0.1-3.4c0-1.2,0-2.3-0.1-3.5c0-1.1,0-2.1,0-3V78.2h3.1v28.1h-2.9l-18.3-24l0.5-0.8c0.1,1.1,0.2,2.1,0.2,3.2
				c0.1,1,0.1,2,0.2,3c0,1,0.1,1.8,0.1,2.6c0,0.8,0,1.5,0.1,2c0,0.6,0,1,0,1.2v12.8H103z"/>
		</g>
	</g>
</g>
<g id="strona_animacje">
</g>
<g id="strona_digital">
</g>
<g id="strona_rysunek">
</g>
</svg>
