<?xml version="1.0" encoding="utf-8"?>
<!-- Generator: Adobe Illustrator 21.0.0, SVG Export Plug-In . SVG Version: 6.00 Build 0)  -->
<svg version="1.0" xmlns="http://www.w3.org/2000/svg" xmlns:xlink="http://www.w3.org/1999/xlink" x="0px" y="0px"
	 viewBox="0 0 134 131.1" style="enable-background:new 0 0 134 131.1;" xml:space="preserve">
<style type="text/css">
	.st0{fill:#FAF4E9;}
	.st1{fill:none;stroke:#1E1F21;stroke-width:2;stroke-miterlimit:10;}
	.st2{fill:#62AE54;}
	.st3{fill:#E94546;}
	.st4{opacity:0.52;fill:#E94546;}
	.st5{fill:#1E1F21;}
	.st6{display:none;fill:url(#SVGID_1_);}
	.st7{fill:none;stroke:#FAF4E9;stroke-width:2;stroke-miterlimit:10;}
	.st8{display:none;fill:#FAF4E9;}
	.st9{display:none;}
	.st10{display:inline;}
	.st11{fill:url(#SVGID_2_);}
	.st12{clip-path:url(#SVGID_4_);}
	.st13{clip-path:url(#SVGID_6_);fill:#63A38A;}
	.st14{clip-path:url(#SVGID_6_);fill:url(#);}
	.st15{clip-path:url(#SVGID_6_);}
	.st16{clip-path:url(#SVGID_8_);fill:none;stroke:url(#);stroke-miterlimit:10;}
	.st17{clip-path:url(#SVGID_8_);}
	.st18{clip-path:url(#SVGID_10_);}
	.st19{clip-path:url(#SVGID_12_);fill:#EDDFB1;}
	.st20{clip-path:url(#SVGID_12_);fill:#63A38A;}
	.st21{clip-path:url(#SVGID_12_);fill:#E83F39;}
	.st22{clip-path:url(#SVGID_12_);fill:#334A5B;}
	.st23{clip-path:url(#SVGID_14_);}
	.st24{clip-path:url(#SVGID_16_);fill:#EDDFB1;}
	.st25{clip-path:url(#SVGID_8_);fill:#334A5B;}
	.st26{clip-path:url(#SVGID_8_);fill:url(#);}
	.st27{clip-path:url(#SVGID_18_);fill:url(#);}
	.st28{clip-path:url(#SVGID_20_);fill:#334A5B;}
	.st29{clip-path:url(#SVGID_20_);fill:#63A38A;}
	.st30{clip-path:url(#SVGID_20_);fill:none;stroke:#EDDFB1;stroke-width:8;stroke-miterlimit:10;}
	.st31{display:none;opacity:0.48;}
	.st32{fill:#46BBC2;}
	.st33{display:inline;fill:#46BBC2;}
</style>
<g id="Warstwa_1">
</g>
<g id="strona_główna">
	<g>
		<path class="st0" d="M7.7,65.5V15.4h19.6c2.9,0,5.6,0.7,7.9,2s4.2,3.2,5.6,5.5s2.1,5,2.1,7.9c0,2.8-0.7,5.3-2,7.5
			c-1.3,2.2-3.1,4-5.4,5.3c-2.3,1.3-4.9,2-7.7,2H13.3v19.8H7.7z M13.3,40.3h15c1.8,0,3.3-0.4,4.7-1.2c1.3-0.8,2.4-1.9,3.2-3.3
			c0.8-1.4,1.1-3,1.1-4.8c0-2-0.5-3.7-1.4-5.2c-0.9-1.5-2.2-2.7-3.8-3.6c-1.6-0.9-3.4-1.3-5.5-1.3H13.3V40.3z M38.3,65.5L25.7,43.5
			l5.4-1.9l13.9,23.9H38.3z"/>
		<path class="st0" d="M65,65.5v-25l0.5,3.5L45.3,15.4h6.8l16.6,23.8L67.2,39l15.3-23.6h6.4L69.5,44.8l1.1-4.9v25.6H65z"/>
		<path class="st0" d="M126.3,55.1c0,1.5-0.2,2.9-0.6,4.2c-0.4,1.3-1,2.5-1.9,3.6c-0.8,1.1-1.9,2.1-3.1,2.9l-2.5-2.3
			c1.9-1.3,3.2-2.7,3.9-4c0.8-1.4,1.1-2.9,1.1-4.7c0-1.3-0.2-2.4-0.6-3.4c-0.4-1-1-1.8-1.8-2.4c-0.8-0.6-1.6-0.9-2.6-0.9
			c-0.6,0-1.2,0.1-1.7,0.3c-0.5,0.2-0.9,0.5-1.3,0.9c-0.4,0.4-0.7,0.9-1,1.5c-0.3,0.6-0.6,1.3-0.8,2.1c-0.3,0.8-0.5,1.7-0.8,2.7
			c-0.3,1.4-0.7,2.7-1.2,3.7c-0.5,1.1-1,2-1.7,2.7c-0.7,0.7-1.4,1.3-2.3,1.7c-0.9,0.4-1.9,0.6-3.1,0.6c-1.1,0-2.2-0.2-3.2-0.7
			c-1-0.5-1.8-1.2-2.5-2c-0.7-0.9-1.3-1.9-1.7-3.1c-0.4-1.2-0.6-2.4-0.6-3.8c0-1.5,0.2-2.9,0.6-4c0.4-1.2,1-2.2,1.8-3.2
			s1.7-1.7,2.8-2.4l2.3,2.3c-0.9,0.6-1.7,1.2-2.4,2c-0.7,0.7-1.2,1.5-1.5,2.4c-0.3,0.9-0.5,1.8-0.5,2.9c0,1.2,0.2,2.3,0.6,3.2
			c0.4,0.9,1,1.7,1.7,2.2c0.7,0.5,1.6,0.8,2.5,0.8c0.7,0,1.3-0.1,1.9-0.4c0.5-0.2,1-0.6,1.4-1.2c0.4-0.5,0.8-1.3,1.1-2.1
			c0.3-0.9,0.6-1.9,0.9-3.2c0.3-1.5,0.7-2.8,1.2-3.9c0.5-1.2,1-2.2,1.7-3c0.7-0.8,1.4-1.5,2.3-1.9c0.9-0.4,1.9-0.7,3-0.7
			c1.7,0,3.2,0.4,4.5,1.3c1.3,0.9,2.3,2.1,3,3.6C125.9,51.3,126.3,53.1,126.3,55.1z"/>
		<path class="st0" d="M126.2,27c0,2.2-0.5,4.2-1.5,5.9c-1,1.7-2.4,3.1-4.1,4.1c-1.7,1-3.7,1.5-5.9,1.5H96.6v-3.3h17.7
			c1.6,0,3.1-0.4,4.4-1.1c1.3-0.7,2.3-1.7,3.1-3c0.8-1.2,1.1-2.6,1.1-4.2c0-1.6-0.4-3.1-1.1-4.3c-0.8-1.3-1.8-2.3-3.1-3
			c-1.3-0.7-2.8-1.1-4.4-1.1H96.6v-3.1h18.1c2.2,0,4.2,0.5,5.9,1.5c1.7,1,3.1,2.4,4.1,4.1C125.7,22.7,126.2,24.7,126.2,27z"/>
		<path class="st0" d="M7.7,115.7V73.2H12L39.8,110l-0.9,1.1c-0.1-0.6-0.2-1.6-0.3-2.9c-0.1-1.3-0.1-2.8-0.2-4.4
			c-0.1-1.6-0.1-3.4-0.2-5.1c0-1.8-0.1-3.5-0.1-5.2c0-1.7,0-3.2,0-4.6V73.2H43v42.5h-4.4L10.8,79.4l0.7-1.3c0.1,1.6,0.2,3.2,0.3,4.8
			c0.1,1.6,0.2,3.1,0.2,4.6c0.1,1.5,0.1,2.8,0.2,4c0,1.2,0.1,2.2,0.1,3.1c0,0.9,0,1.5,0,1.8v19.3H7.7z"/>
		<path class="st0" d="M55.5,115.7V73.2h25.7v4.6h-21v33.3h20.9v4.6H55.5z M57.7,96.2v-4.6h20.2v4.6H57.7z"/>
		<path class="st0" d="M91.9,115.7V73.2h4.7v42.5H91.9z M95.5,102.7L95.3,97l24.1-23.8h6.4L95.5,102.7z M120.4,115.7L103.3,93l3.5-3
			l19.6,25.8H120.4z"/>
	</g>
</g>
<g id="strona_animacje">
</g>
<g id="strona_digital">
</g>
<g id="strona_rysunek">
</g>
</svg>
