<?xml version="1.0" encoding="utf-8"?>
<!-- Generator: Adobe Illustrator 21.0.0, SVG Export Plug-In . SVG Version: 6.00 Build 0)  -->
<svg version="1.0" xmlns="http://www.w3.org/2000/svg" xmlns:xlink="http://www.w3.org/1999/xlink" x="0px" y="0px"
	 viewBox="0 0 134 103.3" style="enable-background:new 0 0 134 103.3;" xml:space="preserve">
<style type="text/css">
	.st0{fill:#FAF4E9;}
	.st1{fill:none;stroke:#1E1F21;stroke-width:2;stroke-miterlimit:10;}
	.st2{fill:#62AE54;}
	.st3{fill:#E94546;}
	.st4{opacity:0.52;fill:#E94546;}
	.st5{fill:#1E1F21;}
	.st6{display:none;fill:url(#SVGID_1_);}
	.st7{fill:none;stroke:#FAF4E9;stroke-width:2;stroke-miterlimit:10;}
	.st8{display:none;fill:#FAF4E9;}
	.st9{display:none;}
	.st10{display:inline;}
	.st11{fill:url(#SVGID_2_);}
	.st12{clip-path:url(#SVGID_4_);}
	.st13{clip-path:url(#SVGID_6_);fill:#63A38A;}
	.st14{clip-path:url(#SVGID_6_);fill:url(#);}
	.st15{clip-path:url(#SVGID_6_);}
	.st16{clip-path:url(#SVGID_8_);fill:none;stroke:url(#);stroke-miterlimit:10;}
	.st17{clip-path:url(#SVGID_8_);}
	.st18{clip-path:url(#SVGID_10_);}
	.st19{clip-path:url(#SVGID_12_);fill:#EDDFB1;}
	.st20{clip-path:url(#SVGID_12_);fill:#63A38A;}
	.st21{clip-path:url(#SVGID_12_);fill:#E83F39;}
	.st22{clip-path:url(#SVGID_12_);fill:#334A5B;}
	.st23{clip-path:url(#SVGID_14_);}
	.st24{clip-path:url(#SVGID_16_);fill:#EDDFB1;}
	.st25{clip-path:url(#SVGID_8_);fill:#334A5B;}
	.st26{clip-path:url(#SVGID_8_);fill:url(#);}
	.st27{clip-path:url(#SVGID_18_);fill:url(#);}
	.st28{clip-path:url(#SVGID_20_);fill:#334A5B;}
	.st29{clip-path:url(#SVGID_20_);fill:#63A38A;}
	.st30{clip-path:url(#SVGID_20_);fill:none;stroke:#EDDFB1;stroke-width:8;stroke-miterlimit:10;}
	.st31{display:none;opacity:0.48;}
	.st32{fill:#46BBC2;}
	.st33{display:inline;fill:#46BBC2;}
</style>
<g id="Warstwa_1">
</g>
<g id="strona_główna">
	<g>
		<g>
			<path class="st0" d="M8.1,50.3L25.6,4.4h5.8l17.4,45.9h-5.6L32.1,20.5c-0.3-0.8-0.6-1.8-1-2.9c-0.4-1.1-0.8-2.3-1.2-3.5
				c-0.4-1.2-0.8-2.4-1.2-3.5c-0.4-1.1-0.7-2.1-1-3h1.3c-0.4,1.1-0.7,2.2-1.1,3.3c-0.4,1.1-0.8,2.2-1.1,3.3
				c-0.4,1.1-0.8,2.2-1.2,3.3c-0.4,1.1-0.8,2.2-1.2,3.3L13.3,50.3H8.1z M15.5,37.6l1.9-5h21.7l2.1,5H15.5z"/>
			<path class="st0" d="M57.3,50.3V4.4H62l30,39.7l-0.9,1.2c-0.1-0.7-0.2-1.7-0.3-3.2c-0.1-1.4-0.1-3-0.2-4.8
				c-0.1-1.8-0.1-3.6-0.2-5.5c0-1.9-0.1-3.8-0.1-5.6c0-1.8,0-3.5,0-5V4.4h5.1v45.9h-4.8L60.7,11.1l0.8-1.4c0.1,1.7,0.2,3.5,0.4,5.2
				c0.1,1.7,0.2,3.3,0.3,4.9c0.1,1.6,0.1,3,0.2,4.3c0,1.3,0.1,2.4,0.1,3.3c0,0.9,0,1.6,0,2v20.9H57.3z"/>
			<path class="st0" d="M106.8,50.3v-4.9h7.4V9.2h-7.4V4.4h19.9v4.9h-7.4v36.2h7.4v4.9H106.8z"/>
		</g>
		<g>
			<path class="st0" d="M26.2,94.1H8.1v-2l11.4-7l0,0.9L8.1,79v-1.8h18.2v2h-8.3c-1.6,0-3,0-4.2-0.1c-1.2-0.1-2.5-0.1-3.7-0.3
				l0.7-0.4L21,85v1.4l-10.1,6.3L10,92.5c1.2-0.1,2.4-0.2,3.6-0.3c1.2-0.1,2.7-0.1,4.4-0.1h8.3V94.1z"/>
			<path class="st0" d="M26.2,73.9l-18.2-7v-2.3l18.2-6.9v2.2l-11.8,4.4c-0.3,0.1-0.7,0.3-1.2,0.4c-0.4,0.1-0.9,0.3-1.4,0.5
				c-0.5,0.2-0.9,0.3-1.4,0.5c-0.5,0.1-0.8,0.3-1.2,0.4v-0.5c0.4,0.1,0.9,0.3,1.3,0.4c0.4,0.1,0.9,0.3,1.3,0.5
				c0.4,0.2,0.9,0.3,1.3,0.5c0.4,0.2,0.9,0.3,1.3,0.5l11.7,4.4V73.9z M21.2,70.9l-2-0.8v-8.6l2-0.8V70.9z"/>
		</g>
		<g>
			<path class="st0" d="M51.1,94.1c-2.5,0-4.9-0.4-7-1.3s-4-2.2-5.5-3.8c-1.6-1.6-2.8-3.6-3.6-5.8c-0.9-2.2-1.3-4.7-1.3-7.3
				c0-2.6,0.4-5,1.3-7.2c0.9-2.2,2.1-4.1,3.7-5.7c1.6-1.6,3.4-2.9,5.5-3.8c2.1-0.9,4.4-1.3,6.9-1.3c1.7,0,3.3,0.3,4.9,0.8
				c1.6,0.5,3.1,1.2,4.5,2.2c1.4,0.9,2.5,2,3.4,3.1l-2.7,2.8c-0.8-1-1.8-1.9-2.9-2.6c-1.1-0.7-2.3-1.3-3.5-1.7
				c-1.2-0.4-2.4-0.6-3.7-0.6c-1.9,0-3.7,0.3-5.3,1c-1.6,0.7-3.1,1.7-4.2,2.9c-1.2,1.3-2.1,2.7-2.8,4.5c-0.7,1.7-1,3.6-1,5.6
				c0,2.1,0.3,4,1,5.8c0.7,1.8,1.6,3.3,2.8,4.5c1.2,1.3,2.7,2.3,4.4,2.9c1.7,0.7,3.5,1,5.6,1c1.2,0,2.4-0.2,3.7-0.5
				c1.2-0.4,2.3-0.9,3.4-1.5c1-0.6,1.9-1.4,2.6-2.2l2,3.3c-0.8,0.9-1.8,1.8-3.1,2.5c-1.3,0.7-2.7,1.3-4.3,1.7
				C54.2,93.9,52.7,94.1,51.1,94.1z"/>
			<path class="st0" d="M78.8,94.1c-1.2,0-2.2-0.1-3.2-0.4c-1-0.3-2-0.7-2.8-1.3c-0.9-0.6-1.7-1.2-2.4-2.1c-0.7-0.8-1.3-1.7-1.9-2.7
				l2.6-2.7c0.6,1,1.2,1.9,1.8,2.5c0.6,0.7,1.3,1.2,1.9,1.6c0.6,0.4,1.3,0.7,1.9,0.9c0.7,0.2,1.3,0.3,2.1,0.3c1.4,0,2.6-0.3,3.7-1
				c1.1-0.7,1.9-1.6,2.5-2.7c0.6-1.2,0.9-2.5,0.9-4V61.8h-6.4v-3.8h15.7v3.8H90v21c0,1.6-0.3,3.1-0.8,4.5c-0.5,1.4-1.3,2.6-2.3,3.6
				c-1,1-2.2,1.8-3.5,2.4S80.5,94.1,78.8,94.1z"/>
			<path class="st0" d="M95,93.6l13.6-35.5h4.5l13.5,35.5h-4.3l-8.7-23.1c-0.2-0.6-0.5-1.4-0.8-2.3s-0.6-1.8-0.9-2.7
				c-0.3-0.9-0.6-1.8-0.9-2.7c-0.3-0.9-0.6-1.7-0.8-2.3h1c-0.3,0.8-0.6,1.7-0.8,2.6s-0.6,1.7-0.9,2.6c-0.3,0.9-0.6,1.7-0.9,2.6
				c-0.3,0.8-0.6,1.7-0.9,2.5l-8.6,22.8H95z M100.8,83.8l1.5-3.9h16.8l1.6,3.9H100.8z"/>
		</g>
	</g>
</g>
<g id="strona_animacje">
</g>
<g id="strona_digital">
</g>
<g id="strona_rysunek">
</g>
</svg>
