<?xml version="1.0" encoding="utf-8"?>
<!-- Generator: Adobe Illustrator 21.0.0, SVG Export Plug-In . SVG Version: 6.00 Build 0)  -->
<svg version="1.0" xmlns="http://www.w3.org/2000/svg" xmlns:xlink="http://www.w3.org/1999/xlink" x="0px" y="0px"
	 viewBox="0 0 134 131.1" style="enable-background:new 0 0 134 131.1;" xml:space="preserve">
<style type="text/css">
	.st0{fill:#FAF4E9;}
	.st1{fill:none;stroke:#1E1F21;stroke-width:2;stroke-miterlimit:10;}
	.st2{fill:#62AE54;}
	.st3{fill:#E94546;}
	.st4{opacity:0.52;fill:#E94546;}
	.st5{fill:#1E1F21;}
	.st6{display:none;fill:url(#SVGID_1_);}
	.st7{fill:none;stroke:#FAF4E9;stroke-width:2;stroke-miterlimit:10;}
	.st8{display:none;fill:#FAF4E9;}
	.st9{display:none;}
	.st10{display:inline;}
	.st11{fill:url(#SVGID_2_);}
	.st12{clip-path:url(#SVGID_4_);}
	.st13{clip-path:url(#SVGID_6_);fill:#63A38A;}
	.st14{clip-path:url(#SVGID_6_);fill:url(#);}
	.st15{clip-path:url(#SVGID_6_);}
	.st16{clip-path:url(#SVGID_8_);fill:none;stroke:url(#);stroke-miterlimit:10;}
	.st17{clip-path:url(#SVGID_8_);}
	.st18{clip-path:url(#SVGID_10_);}
	.st19{clip-path:url(#SVGID_12_);fill:#EDDFB1;}
	.st20{clip-path:url(#SVGID_12_);fill:#63A38A;}
	.st21{clip-path:url(#SVGID_12_);fill:#E83F39;}
	.st22{clip-path:url(#SVGID_12_);fill:#334A5B;}
	.st23{clip-path:url(#SVGID_14_);}
	.st24{clip-path:url(#SVGID_16_);fill:#EDDFB1;}
	.st25{clip-path:url(#SVGID_8_);fill:#334A5B;}
	.st26{clip-path:url(#SVGID_8_);fill:url(#);}
	.st27{clip-path:url(#SVGID_18_);fill:url(#);}
	.st28{clip-path:url(#SVGID_20_);fill:#334A5B;}
	.st29{clip-path:url(#SVGID_20_);fill:#63A38A;}
	.st30{clip-path:url(#SVGID_20_);fill:none;stroke:#EDDFB1;stroke-width:8;stroke-miterlimit:10;}
	.st31{display:none;opacity:0.48;}
	.st32{fill:#46BBC2;}
	.st33{display:inline;fill:#46BBC2;}
</style>
<g id="Warstwa_1">
</g>
<g id="strona_główna">
	<g>
		<path class="st0" d="M7.7,56.3V31h10c1.3,0,2.5,0.3,3.6,1c1.1,0.7,1.9,1.6,2.5,2.7c0.6,1.1,0.9,2.4,0.9,3.9c0,1.5-0.3,2.8-0.9,4
			c-0.6,1.2-1.5,2.1-2.5,2.8c-1.1,0.7-2.3,1-3.6,1h-7.2v10H7.7z M10.5,43.6h7.3c0.7,0,1.4-0.2,2-0.7c0.6-0.4,1.1-1.1,1.4-1.8
			c0.4-0.8,0.5-1.6,0.5-2.6c0-0.9-0.2-1.7-0.5-2.4c-0.4-0.7-0.8-1.3-1.4-1.7c-0.6-0.4-1.3-0.6-2-0.6h-7.3V43.6z"/>
		<path class="st0" d="M30.2,56.3V31H33v25.3H30.2z M31.6,45.1v-2.8h16.8v2.8H31.6z M47.1,56.3V31H50v25.3H47.1z"/>
		<path class="st0" d="M67.9,56.7c-1.8,0-3.4-0.3-4.9-1c-1.5-0.6-2.8-1.5-3.9-2.7c-1.1-1.2-2-2.5-2.6-4.1c-0.6-1.6-0.9-3.3-0.9-5.2
			s0.3-3.6,0.9-5.2c0.6-1.6,1.5-3,2.6-4.1c1.1-1.2,2.4-2.1,3.9-2.7c1.5-0.6,3.2-1,4.9-1c1.8,0,3.5,0.3,5,1c1.5,0.6,2.8,1.5,3.9,2.7
			c1.1,1.2,2,2.5,2.6,4.1c0.6,1.6,0.9,3.3,0.9,5.2c0,1.9-0.3,3.6-0.9,5.2c-0.6,1.6-1.5,3-2.6,4.1c-1.1,1.2-2.4,2.1-3.9,2.7
			C71.4,56.4,69.7,56.7,67.9,56.7z M67.9,53.9c1.4,0,2.6-0.2,3.8-0.7c1.2-0.5,2.2-1.2,3-2.1s1.5-2,2-3.2c0.5-1.2,0.7-2.6,0.7-4.1
			c0-1.5-0.2-2.9-0.7-4.1c-0.5-1.2-1.1-2.3-2-3.2c-0.8-0.9-1.9-1.6-3-2.1c-1.2-0.5-2.4-0.8-3.8-0.8s-2.6,0.3-3.8,0.8
			c-1.2,0.5-2.2,1.2-3,2.1c-0.8,0.9-1.5,2-2,3.2c-0.5,1.2-0.7,2.6-0.7,4.1c0,1.5,0.2,2.8,0.7,4.1c0.5,1.2,1.1,2.3,2,3.2
			c0.8,0.9,1.9,1.6,3,2.1C65.2,53.7,66.5,53.9,67.9,53.9z"/>
		<path class="st0" d="M89.3,56.3V33.8h-7.2V31h17.6v2.8h-7.5v22.6H89.3z"/>
		<path class="st0" d="M113.9,56.7c-1.8,0-3.4-0.3-4.9-1c-1.5-0.6-2.8-1.5-3.9-2.7c-1.1-1.2-2-2.5-2.6-4.1c-0.6-1.6-0.9-3.3-0.9-5.2
			s0.3-3.6,0.9-5.2c0.6-1.6,1.5-3,2.6-4.1c1.1-1.2,2.4-2.1,3.9-2.7c1.5-0.6,3.2-1,4.9-1c1.8,0,3.5,0.3,5,1c1.5,0.6,2.8,1.5,3.9,2.7
			c1.1,1.2,2,2.5,2.6,4.1c0.6,1.6,0.9,3.3,0.9,5.2c0,1.9-0.3,3.6-0.9,5.2c-0.6,1.6-1.5,3-2.6,4.1c-1.1,1.2-2.4,2.1-3.9,2.7
			C117.3,56.4,115.7,56.7,113.9,56.7z M113.9,53.9c1.4,0,2.6-0.2,3.8-0.7c1.2-0.5,2.2-1.2,3-2.1s1.5-2,2-3.2
			c0.5-1.2,0.7-2.6,0.7-4.1c0-1.5-0.2-2.9-0.7-4.1c-0.5-1.2-1.1-2.3-2-3.2c-0.8-0.9-1.9-1.6-3-2.1c-1.2-0.5-2.4-0.8-3.8-0.8
			s-2.6,0.3-3.8,0.8c-1.2,0.5-2.2,1.2-3,2.1c-0.8,0.9-1.5,2-2,3.2c-0.5,1.2-0.7,2.6-0.7,4.1c0,1.5,0.2,2.8,0.7,4.1
			c0.5,1.2,1.1,2.3,2,3.2c0.8,0.9,1.9,1.6,3,2.1C111.2,53.7,112.5,53.9,113.9,53.9z"/>
		<path class="st0" d="M20.5,93.9c0,0.9-0.2,1.8-0.5,2.6c-0.3,0.8-0.8,1.5-1.3,2.1c-0.6,0.6-1.3,1.1-2,1.4c-0.8,0.3-1.6,0.5-2.6,0.5
			c-0.9,0-1.8-0.2-2.6-0.5c-0.8-0.3-1.5-0.8-2-1.4c-0.6-0.6-1-1.3-1.3-2c-0.3-0.8-0.5-1.6-0.5-2.5c0-0.6,0.1-1.3,0.3-1.9
			c0.2-0.6,0.4-1.2,0.8-1.7c0.3-0.5,0.7-0.9,1.1-1.2l0.9,0.9c-0.3,0.3-0.6,0.7-0.9,1.1c-0.3,0.4-0.4,0.9-0.6,1.3
			C9.1,93,9.1,93.5,9.1,94c0,0.7,0.1,1.4,0.4,2c0.3,0.6,0.6,1.1,1,1.6c0.4,0.5,1,0.8,1.6,1.1c0.6,0.3,1.3,0.4,2,0.4
			c0.7,0,1.4-0.1,2-0.4c0.6-0.3,1.2-0.6,1.6-1.1c0.5-0.5,0.8-1,1.1-1.6c0.3-0.6,0.4-1.3,0.4-2c0-0.6-0.1-1.1-0.3-1.6
			c-0.2-0.5-0.4-0.9-0.7-1.3c-0.3-0.4-0.7-0.7-1.1-0.9c-0.4-0.2-0.8-0.3-1.3-0.3h-0.6l0.4-0.3v4.4h-1.4v-5.5c0.1,0,0.2,0,0.3,0
			c0.1,0,0.3,0,0.4,0s0.2,0,0.3,0c0.8,0,1.5,0.1,2.1,0.4c0.7,0.3,1.2,0.7,1.7,1.2c0.5,0.5,0.8,1.1,1.1,1.8
			C20.4,92.3,20.5,93.1,20.5,93.9z"/>
		<path class="st0" d="M20.3,85.7H7.8v-4.9c0-0.7,0.2-1.4,0.5-2c0.3-0.6,0.8-1.1,1.4-1.4c0.6-0.3,1.2-0.5,2-0.5
			c0.7,0,1.3,0.2,1.9,0.5c0.6,0.3,1,0.8,1.3,1.4c0.3,0.6,0.5,1.2,0.5,1.9v3.6h4.9V85.7z M14,84.3v-3.7c0-0.4-0.1-0.8-0.3-1.2
			c-0.2-0.3-0.5-0.6-0.8-0.8c-0.4-0.2-0.8-0.3-1.2-0.3c-0.5,0-0.9,0.1-1.3,0.3c-0.4,0.2-0.7,0.5-0.9,0.9C9.2,80,9.1,80.5,9.1,81v3.3
			H14z M20.3,78.1l-5.5,3.2l-0.5-1.3l6-3.5V78.1z"/>
		<path class="st0" d="M20.3,75.3L7.8,70.5v-1.6l12.6-4.8v1.5l-8.1,3.1c-0.2,0.1-0.5,0.2-0.8,0.3c-0.3,0.1-0.6,0.2-1,0.3
			c-0.3,0.1-0.6,0.2-1,0.3c-0.3,0.1-0.6,0.2-0.8,0.3v-0.4c0.3,0.1,0.6,0.2,0.9,0.3c0.3,0.1,0.6,0.2,0.9,0.3c0.3,0.1,0.6,0.2,0.9,0.3
			c0.3,0.1,0.6,0.2,0.9,0.3l8.1,3V75.3z M16.9,73.2l-1.4-0.5v-5.9l1.4-0.6V73.2z"/>
		<path class="st0" d="M28,100.4V64.1h14.4c1.9,0,3.6,0.5,5.1,1.4c1.5,0.9,2.7,2.2,3.6,3.9c0.9,1.6,1.3,3.5,1.3,5.5
			c0,2.1-0.5,4.1-1.3,5.7c-0.9,1.7-2.1,3-3.6,4c-1.5,1-3.2,1.5-5.1,1.5H32v14.3H28z M32,82.1h10.5c1.1,0,2-0.3,2.9-1
			c0.8-0.6,1.5-1.5,2-2.6s0.8-2.3,0.8-3.8c0-1.3-0.3-2.4-0.8-3.4c-0.5-1-1.2-1.8-2-2.4c-0.8-0.6-1.8-0.9-2.9-0.9H32V82.1z"/>
		<path class="st0" d="M60.2,100.4V64.1h4v36.3H60.2z M62.2,84.3v-3.9h24v3.9H62.2z M84.4,100.4V64.1h4v36.3H84.4z"/>
		<path class="st0" d="M109.1,100.4V82.3l0.4,2.5L94.8,64.1h4.9l12,17.2l-1.1-0.1l11-17.1h4.7l-14,21.3l0.8-3.5v18.5H109.1z"/>
	</g>
</g>
<g id="strona_animacje">
</g>
<g id="strona_digital">
</g>
<g id="strona_rysunek">
</g>
</svg>
