<?xml version="1.0" encoding="utf-8"?>
<!-- Generator: Adobe Illustrator 21.0.0, SVG Export Plug-In . SVG Version: 6.00 Build 0)  -->
<svg version="1.0" xmlns="http://www.w3.org/2000/svg" xmlns:xlink="http://www.w3.org/1999/xlink" x="0px" y="0px"
	 viewBox="0 0 134 131.1" style="enable-background:new 0 0 134 131.1;" xml:space="preserve">
<style type="text/css">
	.st0{fill:#FAF4E9;}
	.st1{fill:none;stroke:#1E1F21;stroke-width:2;stroke-miterlimit:10;}
	.st2{fill:#62AE54;}
	.st3{fill:#E94546;}
	.st4{opacity:0.52;fill:#E94546;}
	.st5{fill:#1E1F21;}
	.st6{display:none;fill:url(#SVGID_1_);}
	.st7{fill:none;stroke:#FAF4E9;stroke-width:2;stroke-miterlimit:10;}
	.st8{display:none;fill:#FAF4E9;}
	.st9{display:none;}
	.st10{display:inline;}
	.st11{fill:url(#SVGID_2_);}
	.st12{clip-path:url(#SVGID_4_);}
	.st13{clip-path:url(#SVGID_6_);fill:#63A38A;}
	.st14{clip-path:url(#SVGID_6_);fill:url(#);}
	.st15{clip-path:url(#SVGID_6_);}
	.st16{clip-path:url(#SVGID_8_);fill:none;stroke:url(#);stroke-miterlimit:10;}
	.st17{clip-path:url(#SVGID_8_);}
	.st18{clip-path:url(#SVGID_10_);}
	.st19{clip-path:url(#SVGID_12_);fill:#EDDFB1;}
	.st20{clip-path:url(#SVGID_12_);fill:#63A38A;}
	.st21{clip-path:url(#SVGID_12_);fill:#E83F39;}
	.st22{clip-path:url(#SVGID_12_);fill:#334A5B;}
	.st23{clip-path:url(#SVGID_14_);}
	.st24{clip-path:url(#SVGID_16_);fill:#EDDFB1;}
	.st25{clip-path:url(#SVGID_8_);fill:#334A5B;}
	.st26{clip-path:url(#SVGID_8_);fill:url(#);}
	.st27{clip-path:url(#SVGID_18_);fill:url(#);}
	.st28{clip-path:url(#SVGID_20_);fill:#334A5B;}
	.st29{clip-path:url(#SVGID_20_);fill:#63A38A;}
	.st30{clip-path:url(#SVGID_20_);fill:none;stroke:#EDDFB1;stroke-width:8;stroke-miterlimit:10;}
	.st31{display:none;opacity:0.48;}
	.st32{fill:#46BBC2;}
	.st33{display:inline;fill:#46BBC2;}
</style>
<g id="Warstwa_1">
</g>
<g id="strona_główna">
	<g>
		<path class="st0" d="M17.3,49.4c-1.3,0-2.6-0.2-3.8-0.6c-1.2-0.4-2.3-1-3.3-1.7c-1-0.8-1.9-1.7-2.6-2.8l2.1-2.3
			c1.2,1.7,2.4,2.9,3.7,3.6c1.3,0.7,2.7,1,4.2,1c1.1,0,2.2-0.2,3.1-0.6c0.9-0.4,1.7-0.9,2.2-1.6c0.5-0.7,0.8-1.5,0.8-2.4
			c0-0.6-0.1-1.1-0.3-1.6c-0.2-0.5-0.5-0.9-0.9-1.2c-0.4-0.4-0.9-0.7-1.4-1s-1.2-0.5-1.9-0.8c-0.7-0.2-1.5-0.5-2.4-0.7
			c-1.3-0.3-2.4-0.7-3.4-1.1c-1-0.4-1.8-0.9-2.5-1.5c-0.7-0.6-1.2-1.3-1.5-2.1c-0.3-0.8-0.5-1.7-0.5-2.8c0-1,0.2-2,0.7-2.9
			c0.4-0.9,1.1-1.7,1.8-2.3c0.8-0.6,1.7-1.1,2.8-1.5c1.1-0.4,2.2-0.5,3.4-0.5c1.4,0,2.6,0.2,3.7,0.6c1.1,0.4,2,0.9,2.9,1.6
			c0.8,0.7,1.6,1.6,2.2,2.5l-2.1,2.1c-0.5-0.8-1.1-1.6-1.8-2.2c-0.7-0.6-1.4-1.1-2.2-1.4c-0.8-0.3-1.7-0.5-2.6-0.5
			c-1.1,0-2.1,0.2-2.9,0.6c-0.9,0.4-1.5,0.9-2,1.6c-0.5,0.7-0.7,1.4-0.7,2.3c0,0.6,0.1,1.2,0.3,1.7c0.2,0.5,0.6,0.9,1.1,1.3
			c0.5,0.4,1.1,0.7,1.9,1c0.8,0.3,1.8,0.6,2.9,0.8c1.3,0.3,2.5,0.7,3.6,1.1c1.1,0.4,2,0.9,2.7,1.5c0.8,0.6,1.3,1.3,1.7,2.1
			c0.4,0.8,0.6,1.7,0.6,2.7c0,1.6-0.4,3-1.2,4.1c-0.8,1.2-1.9,2.1-3.3,2.8C20.9,49.1,19.2,49.4,17.3,49.4z"/>
		<path class="st0" d="M43.7,49.4c-1.9,0-3.7-0.3-5.3-1c-1.6-0.7-3-1.6-4.1-2.9c-1.2-1.2-2.1-2.7-2.7-4.4c-0.6-1.7-1-3.5-1-5.5
			c0-2,0.3-3.7,1-5.4c0.6-1.6,1.6-3.1,2.8-4.3c1.2-1.2,2.6-2.2,4.1-2.8c1.6-0.7,3.3-1,5.2-1c1.2,0,2.5,0.2,3.7,0.6
			c1.2,0.4,2.3,0.9,3.4,1.6c1,0.7,1.9,1.5,2.5,2.4l-2.1,2.1c-0.6-0.8-1.4-1.4-2.2-2c-0.8-0.6-1.7-1-2.6-1.3
			c-0.9-0.3-1.8-0.5-2.7-0.5c-1.4,0-2.7,0.3-4,0.8s-2.3,1.3-3.2,2.2c-0.9,0.9-1.6,2.1-2.1,3.4c-0.5,1.3-0.7,2.7-0.7,4.2
			c0,1.6,0.2,3,0.7,4.3c0.5,1.3,1.2,2.5,2.1,3.4c0.9,1,2,1.7,3.3,2.2s2.7,0.8,4.2,0.8c0.9,0,1.8-0.1,2.7-0.4
			c0.9-0.3,1.8-0.6,2.5-1.1c0.8-0.5,1.4-1,1.9-1.6l1.5,2.5c-0.6,0.7-1.4,1.3-2.3,1.9c-1,0.5-2.1,1-3.2,1.3
			C46.1,49.3,44.9,49.4,43.7,49.4z"/>
		<path class="st0" d="M68.7,49.3c-2,0-3.8-0.4-5.4-1.4c-1.6-0.9-2.8-2.1-3.7-3.7c-0.9-1.6-1.3-3.4-1.3-5.4V22.4h3v16.1
			c0,1.5,0.3,2.8,1,4c0.7,1.2,1.6,2.1,2.7,2.8c1.1,0.7,2.4,1,3.8,1c1.5,0,2.8-0.3,3.9-1c1.2-0.7,2.1-1.6,2.7-2.8c0.7-1.2,1-2.5,1-4
			V22.4h2.9v16.4c0,2-0.5,3.8-1.4,5.4c-0.9,1.6-2.1,2.8-3.7,3.7C72.5,48.9,70.7,49.3,68.7,49.3z"/>
		<path class="st0" d="M86.9,49.1V22.4h3v23.8h12.8v2.9H86.9z"/>
		<path class="st0" d="M108.4,49.1V22.4H119c1.4,0,2.7,0.3,3.8,1c1.1,0.7,2,1.6,2.7,2.8c0.7,1.2,1,2.6,1,4.1c0,1.6-0.3,3-1,4.2
			c-0.7,1.2-1.6,2.2-2.7,2.9c-1.1,0.7-2.4,1.1-3.8,1.1h-7.6v10.5H108.4z M111.4,35.7h7.7c0.8,0,1.5-0.2,2.1-0.7
			c0.6-0.5,1.1-1.1,1.5-1.9s0.6-1.7,0.6-2.8c0-0.9-0.2-1.8-0.6-2.5c-0.4-0.7-0.9-1.3-1.5-1.8c-0.6-0.4-1.3-0.7-2.1-0.7h-7.7V35.7z"
			/>
		<path class="st0" d="M38.7,100.1H11v8.9H7.6V87.4H11v9.2h27.7V100.1z"/>
		<path class="st0" d="M39,69.6c0,2.3-0.5,4.4-1.6,6.3c-1,1.8-2.5,3.3-4.4,4.3c-1.8,1-3.9,1.6-6.3,1.6H7.6v-3.5h18.8
			c1.7,0,3.3-0.4,4.7-1.2c1.4-0.8,2.5-1.8,3.3-3.1c0.8-1.3,1.2-2.8,1.2-4.4c0-1.7-0.4-3.2-1.2-4.6c-0.8-1.3-1.9-2.4-3.3-3.2
			c-1.4-0.8-3-1.2-4.7-1.2H7.6v-3.3h19.2c2.3,0,4.4,0.5,6.3,1.6c1.9,1,3.3,2.5,4.4,4.4C38.5,65.1,39,67.2,39,69.6z"/>
		<path class="st0" d="M46.4,109V57.3h20.2c3,0,5.7,0.7,8.2,2.1c2.4,1.4,4.4,3.3,5.8,5.7c1.4,2.4,2.1,5.1,2.1,8.2
			c0,2.9-0.7,5.4-2.1,7.7c-1.4,2.3-3.2,4.1-5.6,5.5c-2.4,1.4-5,2-8,2H52.2V109H46.4z M52.2,83h15.4c1.8,0,3.4-0.4,4.8-1.3
			c1.4-0.8,2.5-2,3.2-3.4c0.8-1.5,1.2-3.1,1.2-5c0-2-0.5-3.8-1.4-5.4c-0.9-1.6-2.2-2.8-3.9-3.7C69.9,63.4,68,63,65.9,63H52.2V83z
			 M77.9,109l-13-22.7l5.5-1.9L84.8,109H77.9z"/>
		<path class="st0" d="M95.1,109V57.3h31.3V63h-25.5v40.4h25.4v5.6H95.1z M97.8,85.2v-5.6h24.5v5.6H97.8z"/>
	</g>
</g>
<g id="strona_animacje">
</g>
<g id="strona_digital">
</g>
<g id="strona_rysunek">
</g>
</svg>
