<?xml version="1.0" encoding="utf-8"?>
<!-- Generator: Adobe Illustrator 21.0.0, SVG Export Plug-In . SVG Version: 6.00 Build 0)  -->
<svg version="1.0" xmlns="http://www.w3.org/2000/svg" xmlns:xlink="http://www.w3.org/1999/xlink" x="0px" y="0px"
	 viewBox="0 0 134 131.1" style="enable-background:new 0 0 134 131.1;" xml:space="preserve">
<style type="text/css">
	.st0{fill:#FAF4E9;}
	.st1{fill:none;stroke:#1E1F21;stroke-width:2;stroke-miterlimit:10;}
	.st2{fill:#62AE54;}
	.st3{fill:#E94546;}
	.st4{opacity:0.52;fill:#E94546;}
	.st5{fill:#1E1F21;}
	.st6{display:none;fill:url(#SVGID_1_);}
	.st7{fill:none;stroke:#FAF4E9;stroke-width:2;stroke-miterlimit:10;}
	.st8{display:none;fill:#FAF4E9;}
	.st9{display:none;}
	.st10{display:inline;}
	.st11{fill:url(#SVGID_2_);}
	.st12{clip-path:url(#SVGID_4_);}
	.st13{clip-path:url(#SVGID_6_);fill:#63A38A;}
	.st14{clip-path:url(#SVGID_6_);fill:url(#);}
	.st15{clip-path:url(#SVGID_6_);}
	.st16{clip-path:url(#SVGID_8_);fill:none;stroke:url(#);stroke-miterlimit:10;}
	.st17{clip-path:url(#SVGID_8_);}
	.st18{clip-path:url(#SVGID_10_);}
	.st19{clip-path:url(#SVGID_12_);fill:#EDDFB1;}
	.st20{clip-path:url(#SVGID_12_);fill:#63A38A;}
	.st21{clip-path:url(#SVGID_12_);fill:#E83F39;}
	.st22{clip-path:url(#SVGID_12_);fill:#334A5B;}
	.st23{clip-path:url(#SVGID_14_);}
	.st24{clip-path:url(#SVGID_16_);fill:#EDDFB1;}
	.st25{clip-path:url(#SVGID_8_);fill:#334A5B;}
	.st26{clip-path:url(#SVGID_8_);fill:url(#);}
	.st27{clip-path:url(#SVGID_18_);fill:url(#);}
	.st28{clip-path:url(#SVGID_20_);fill:#334A5B;}
	.st29{clip-path:url(#SVGID_20_);fill:#63A38A;}
	.st30{clip-path:url(#SVGID_20_);fill:none;stroke:#EDDFB1;stroke-width:8;stroke-miterlimit:10;}
	.st31{display:none;opacity:0.48;}
	.st32{fill:#46BBC2;}
	.st33{display:inline;fill:#46BBC2;}
</style>
<g id="Warstwa_1">
</g>
<g id="strona_główna">
	<g>
		<path class="st0" d="M7.6,68.5V25.8h16.1c2.9,0,5.6,0.5,8,1.6c2.4,1,4.5,2.5,6.3,4.4c1.8,1.9,3.2,4.2,4.2,6.8
			c1,2.6,1.5,5.5,1.5,8.6c0,3.1-0.5,6-1.5,8.6c-1,2.6-2.3,4.9-4.1,6.8c-1.8,1.9-3.9,3.4-6.3,4.4c-2.4,1-5.1,1.6-8.1,1.6H7.6z
			 M12.3,64.7l-0.5-0.9h11.6c2.2,0,4.3-0.4,6.2-1.2c1.9-0.8,3.5-1.9,4.9-3.4c1.4-1.5,2.4-3.2,3.2-5.3c0.8-2,1.1-4.3,1.1-6.8
			c0-2.5-0.4-4.8-1.1-6.8c-0.8-2-1.8-3.8-3.2-5.3c-1.4-1.5-3-2.6-4.9-3.4c-1.9-0.8-3.9-1.2-6.2-1.2H11.6l0.7-0.7V64.7z"/>
		<path class="st0" d="M52.9,68.5V25.8h16.7c2.5,0,4.7,0.6,6.7,1.7c2,1.2,3.6,2.7,4.8,4.7s1.8,4.3,1.8,6.8c0,2.4-0.6,4.5-1.7,6.4
			c-1.1,1.9-2.7,3.4-4.6,4.5c-2,1.1-4.1,1.7-6.6,1.7H57.7v16.8H52.9z M57.7,47h12.8c1.5,0,2.8-0.3,4-1c1.1-0.7,2-1.6,2.7-2.8
			c0.6-1.2,1-2.6,1-4.1c0-1.7-0.4-3.2-1.2-4.5c-0.8-1.3-1.8-2.3-3.2-3.1c-1.4-0.7-2.9-1.1-4.7-1.1H57.7V47z M79,68.5L68.2,49.7
			l4.6-1.6l11.8,20.4H79z"/>
		<path class="st0" d="M88.4,68.5l16.4-42.7h5.4l16.2,42.7h-5.2l-10.4-27.7c-0.3-0.8-0.6-1.7-0.9-2.7c-0.3-1-0.7-2.1-1.1-3.2
			c-0.4-1.1-0.8-2.2-1.1-3.3c-0.3-1.1-0.7-2-0.9-2.8h1.2c-0.3,1-0.7,2-1,3.1c-0.3,1-0.7,2.1-1.1,3.1c-0.4,1-0.7,2.1-1.1,3.1
			c-0.4,1-0.7,2-1.1,3.1L93.3,68.5H88.4z M95.4,56.7l1.8-4.6h20.2l1.9,4.6H95.4z"/>
		<path class="st0" d="M16.3,105L7.6,76.1H11l5.6,19c0.2,0.7,0.4,1.3,0.6,1.9c0.1,0.6,0.3,1.2,0.4,1.7c0.1,0.5,0.2,1.1,0.3,1.6
			c0.1,0.5,0.2,1.1,0.3,1.7l-0.7,0c0.4-1.3,0.7-2.3,0.9-3s0.5-1.4,0.7-2c0.2-0.6,0.5-1.2,0.7-2l4.9-12.2h3l4.9,12.4
			c0.3,0.8,0.6,1.5,0.9,2.2c0.2,0.7,0.5,1.4,0.7,2.1c0.2,0.7,0.5,1.5,0.7,2.4l-0.7,0.1c0.1-0.7,0.2-1.2,0.3-1.7
			c0.1-0.4,0.2-0.8,0.2-1.2c0.1-0.3,0.2-0.7,0.2-1c0.1-0.3,0.2-0.8,0.3-1.2c0.1-0.5,0.3-1.1,0.5-1.8l5.6-18.8h3.5L36.1,105h-2.7
			l-7.8-18.5l0.7,0.1L18.9,105H16.3z"/>
		<path class="st0" d="M48.8,105v-3.1h4.7V79.2h-4.7v-3.1h12.5v3.1h-4.7v22.7h4.7v3.1H48.8z"/>
		<path class="st0" d="M68.4,105V76.1h2.9l18.9,25l-0.6,0.7c-0.1-0.4-0.1-1.1-0.2-2c0-0.9-0.1-1.9-0.1-3c0-1.1-0.1-2.3-0.1-3.5
			c0-1.2,0-2.4-0.1-3.5c0-1.2,0-2.2,0-3.1V76.1h3.2V105h-3L70.6,80.3l0.5-0.9c0.1,1.1,0.2,2.2,0.2,3.3c0.1,1.1,0.1,2.1,0.2,3.1
			c0,1,0.1,1.9,0.1,2.7c0,0.8,0,1.5,0.1,2.1c0,0.6,0,1,0,1.2V105H68.4z"/>
		<path class="st0" d="M113.6,105.4c-2.1,0-4.1-0.4-5.9-1.1c-1.8-0.7-3.4-1.8-4.8-3.1c-1.4-1.3-2.4-2.9-3.2-4.7
			c-0.8-1.8-1.1-3.8-1.1-5.9s0.4-4.1,1.1-5.9c0.8-1.8,1.8-3.4,3.1-4.7c1.3-1.3,2.9-2.3,4.7-3.1c1.8-0.7,3.7-1.1,5.8-1.1
			c1.5,0,2.9,0.2,4.3,0.6c1.4,0.4,2.7,1,3.9,1.7c1.2,0.7,2.1,1.6,2.8,2.5l-2.1,2.2c-0.8-0.8-1.6-1.5-2.6-2.1c-1-0.6-2-1-3-1.4
			c-1.1-0.3-2.1-0.5-3.2-0.5c-1.6,0-3.1,0.3-4.5,0.9c-1.4,0.6-2.6,1.4-3.7,2.4c-1,1-1.9,2.3-2.4,3.7c-0.6,1.4-0.9,3-0.9,4.6
			c0,1.6,0.3,3.1,0.9,4.6s1.4,2.7,2.5,3.7c1.1,1.1,2.3,1.9,3.8,2.5c1.4,0.6,3,0.9,4.6,0.9c1.3,0,2.5-0.2,3.6-0.6
			c1.1-0.4,2.1-0.9,3-1.6c0.9-0.7,1.5-1.5,2-2.5c0.5-0.9,0.7-1.9,0.7-3v-1.4l0.7,0.8h-10.1v-3.2h12.7c0,0.2,0.1,0.5,0.1,0.8
			c0,0.3,0,0.6,0.1,0.9c0,0.3,0,0.6,0,0.8c0,1.8-0.3,3.4-1,4.9s-1.6,2.8-2.7,3.9c-1.2,1.1-2.5,1.9-4.1,2.5
			C117.1,105.1,115.4,105.4,113.6,105.4z"/>
	</g>
</g>
<g id="strona_animacje">
</g>
<g id="strona_digital">
</g>
<g id="strona_rysunek">
</g>
</svg>
