<?xml version="1.0" encoding="utf-8"?>
<!-- Generator: Adobe Illustrator 21.0.0, SVG Export Plug-In . SVG Version: 6.00 Build 0)  -->
<svg version="1.0" xmlns="http://www.w3.org/2000/svg" xmlns:xlink="http://www.w3.org/1999/xlink" x="0px" y="0px"
	 viewBox="0 0 134 131.1" style="enable-background:new 0 0 134 131.1;" xml:space="preserve">
<style type="text/css">
	.st0{fill:#FAF4E9;}
	.st1{fill:none;stroke:#1E1F21;stroke-width:2;stroke-miterlimit:10;}
	.st2{fill:#62AE54;}
	.st3{fill:#E94546;}
	.st4{opacity:0.52;fill:#E94546;}
	.st5{fill:#1E1F21;}
	.st6{display:none;fill:url(#SVGID_1_);}
	.st7{fill:none;stroke:#FAF4E9;stroke-width:2;stroke-miterlimit:10;}
	.st8{display:none;fill:#FAF4E9;}
	.st9{display:none;}
	.st10{display:inline;}
	.st11{fill:url(#SVGID_2_);}
	.st12{clip-path:url(#SVGID_4_);}
	.st13{clip-path:url(#SVGID_6_);fill:#63A38A;}
	.st14{clip-path:url(#SVGID_6_);fill:url(#);}
	.st15{clip-path:url(#SVGID_6_);}
	.st16{clip-path:url(#SVGID_8_);fill:none;stroke:url(#);stroke-miterlimit:10;}
	.st17{clip-path:url(#SVGID_8_);}
	.st18{clip-path:url(#SVGID_10_);}
	.st19{clip-path:url(#SVGID_12_);fill:#EDDFB1;}
	.st20{clip-path:url(#SVGID_12_);fill:#63A38A;}
	.st21{clip-path:url(#SVGID_12_);fill:#E83F39;}
	.st22{clip-path:url(#SVGID_12_);fill:#334A5B;}
	.st23{clip-path:url(#SVGID_14_);}
	.st24{clip-path:url(#SVGID_16_);fill:#EDDFB1;}
	.st25{clip-path:url(#SVGID_8_);fill:#334A5B;}
	.st26{clip-path:url(#SVGID_8_);fill:url(#);}
	.st27{clip-path:url(#SVGID_18_);fill:url(#);}
	.st28{clip-path:url(#SVGID_20_);fill:#334A5B;}
	.st29{clip-path:url(#SVGID_20_);fill:#63A38A;}
	.st30{clip-path:url(#SVGID_20_);fill:none;stroke:#EDDFB1;stroke-width:8;stroke-miterlimit:10;}
	.st31{display:none;opacity:0.48;}
	.st32{fill:#46BBC2;}
	.st33{display:inline;fill:#46BBC2;}
</style>
<g id="Warstwa_1">
</g>
<g id="strona_główna">
	<g>
		<path class="st0" d="M7.8,61.4V13.6h18.7c2.8,0,5.3,0.7,7.6,1.9c2.3,1.3,4,3.1,5.4,5.3c1.3,2.2,2,4.8,2,7.6c0,2.6-0.6,5-1.9,7.2
			c-1.3,2.1-3,3.8-5.2,5.1c-2.2,1.3-4.6,1.9-7.4,1.9H13.1v18.9H7.8z M13.1,37.4h14.3c1.7,0,3.2-0.4,4.4-1.2c1.3-0.8,2.3-1.8,3-3.2
			c0.7-1.3,1.1-2.9,1.1-4.6c0-1.9-0.4-3.5-1.3-5c-0.9-1.5-2.1-2.6-3.6-3.4c-1.5-0.8-3.3-1.2-5.2-1.2H13.1V37.4z M37,61.4l-12-21.1
			l5.1-1.8l13.3,22.8H37z"/>
		<path class="st0" d="M50,61.4v-4.1l29.6-40l1,1.4H51.8v-5.2h34v4L56.3,57.7l-1-1.4h31.3v5.2H50z"/>
		<path class="st0" d="M97.2,61.4V13.6h29v5.2h-23.7v37.5h23.5v5.2H97.2z M99.7,39.4v-5.2h22.7v5.2H99.7z"/>
		<path class="st0" d="M7.8,117.6v-3.7l26.9-36.3l0.9,1.3H9.4v-4.7h30.9v3.7l-26.8,36.4l-0.9-1.3H41v4.7H7.8z M20.4,70.6L19,68
			l10.4-6.5l2.5,4.3L20.4,70.6z"/>
		<path class="st0" d="M50.7,117.6V74.1h17.6c2.5,0,4.7,0.4,6.5,1.3c1.8,0.9,3.3,2.2,4.3,3.8c1,1.6,1.5,3.6,1.5,5.8
			c0,2.4-0.7,4.5-2,6.2c-1.4,1.7-3.2,2.9-5.6,3.6l-0.1-1.2c2,0.4,3.8,1.1,5.3,2.1c1.5,1.1,2.7,2.3,3.5,3.9c0.8,1.5,1.3,3.3,1.3,5.2
			c0,1.9-0.3,3.7-1,5.3c-0.7,1.6-1.6,2.9-2.8,4c-1.2,1.1-2.7,2-4.4,2.6c-1.7,0.6-3.6,0.9-5.7,0.9H50.7z M55.5,92.8H68
			c1.5,0,2.8-0.3,4-0.9s2.1-1.4,2.7-2.5s1-2.2,1-3.6c0-2.1-0.7-3.8-2.1-5.1c-1.4-1.3-3.4-1.9-6-1.9h-12V92.8z M55.5,112.9h13
			c1.9,0,3.5-0.3,4.9-1c1.4-0.6,2.5-1.6,3.2-2.8s1.2-2.6,1.2-4.2c0-1.5-0.4-2.8-1.2-3.9c-0.8-1.1-1.9-2-3.4-2.6
			c-1.4-0.6-3.1-0.9-5-0.9H55.5V112.9z"/>
		<path class="st0" d="M87.5,117.6l16.6-43.5h5.5l16.5,43.5h-5.3l-10.6-28.2c-0.3-0.8-0.6-1.7-1-2.8s-0.7-2.2-1.1-3.3
			c-0.4-1.1-0.8-2.2-1.1-3.3c-0.4-1.1-0.7-2-1-2.9h1.2c-0.3,1-0.7,2.1-1,3.1s-0.7,2.1-1.1,3.2c-0.4,1.1-0.7,2.1-1.1,3.1
			c-0.4,1-0.7,2.1-1.1,3.1l-10.6,27.9H87.5z M94.6,105.6l1.8-4.7H117l2,4.7H94.6z"/>
	</g>
</g>
<g id="strona_animacje">
</g>
<g id="strona_digital">
</g>
<g id="strona_rysunek">
</g>
</svg>
