<?xml version="1.0" encoding="utf-8"?>
<!-- Generator: Adobe Illustrator 21.0.0, SVG Export Plug-In . SVG Version: 6.00 Build 0)  -->
<svg version="1.0" xmlns="http://www.w3.org/2000/svg" xmlns:xlink="http://www.w3.org/1999/xlink" x="0px" y="0px"
	 viewBox="0 0 134 119.3" style="enable-background:new 0 0 134 119.3;" xml:space="preserve">
<style type="text/css">
	.st0{fill:#FAF4E9;}
	.st1{fill:none;stroke:#1E1F21;stroke-width:2;stroke-miterlimit:10;}
	.st2{fill:#62AE54;}
	.st3{fill:#E94546;}
	.st4{opacity:0.52;fill:#E94546;}
	.st5{fill:#1E1F21;}
	.st6{display:none;fill:url(#SVGID_1_);}
	.st7{fill:none;stroke:#FAF4E9;stroke-width:2;stroke-miterlimit:10;}
	.st8{display:none;fill:#FAF4E9;}
	.st9{display:none;}
	.st10{display:inline;}
	.st11{fill:url(#SVGID_2_);}
	.st12{clip-path:url(#SVGID_4_);}
	.st13{clip-path:url(#SVGID_6_);fill:#63A38A;}
	.st14{clip-path:url(#SVGID_6_);fill:url(#);}
	.st15{clip-path:url(#SVGID_6_);}
	.st16{clip-path:url(#SVGID_8_);fill:none;stroke:url(#);stroke-miterlimit:10;}
	.st17{clip-path:url(#SVGID_8_);}
	.st18{clip-path:url(#SVGID_10_);}
	.st19{clip-path:url(#SVGID_12_);fill:#EDDFB1;}
	.st20{clip-path:url(#SVGID_12_);fill:#63A38A;}
	.st21{clip-path:url(#SVGID_12_);fill:#E83F39;}
	.st22{clip-path:url(#SVGID_12_);fill:#334A5B;}
	.st23{clip-path:url(#SVGID_14_);}
	.st24{clip-path:url(#SVGID_16_);fill:#EDDFB1;}
	.st25{clip-path:url(#SVGID_8_);fill:#334A5B;}
	.st26{clip-path:url(#SVGID_8_);fill:url(#);}
	.st27{clip-path:url(#SVGID_18_);fill:url(#);}
	.st28{clip-path:url(#SVGID_20_);fill:#334A5B;}
	.st29{clip-path:url(#SVGID_20_);fill:#63A38A;}
	.st30{clip-path:url(#SVGID_20_);fill:none;stroke:#EDDFB1;stroke-width:8;stroke-miterlimit:10;}
	.st31{display:none;opacity:0.48;}
	.st32{fill:#46BBC2;}
	.st33{display:inline;fill:#46BBC2;}
</style>
<g id="Warstwa_1">
</g>
<g id="strona_główna">
	<g>
		<path class="st0" d="M10.5,55.5V8.2h17.8c3.2,0,6.2,0.6,8.9,1.7c2.7,1.1,5,2.8,7,4.9c2,2.1,3.5,4.6,4.6,7.5
			c1.1,2.9,1.6,6.1,1.6,9.5c0,3.5-0.5,6.7-1.6,9.6c-1.1,2.9-2.6,5.4-4.6,7.5c-2,2.1-4.3,3.7-7,4.9c-2.7,1.1-5.7,1.7-8.9,1.7H10.5z
			 M15.8,51.3l-0.6-0.9H28c2.5,0,4.8-0.4,6.9-1.3c2.1-0.9,3.9-2.1,5.4-3.8c1.5-1.6,2.7-3.6,3.5-5.8c0.8-2.3,1.2-4.8,1.2-7.6
			c0-2.8-0.4-5.3-1.2-7.6c-0.8-2.3-2-4.2-3.6-5.8c-1.5-1.6-3.3-2.9-5.4-3.8c-2.1-0.9-4.4-1.3-6.8-1.3H15l0.8-0.8V51.3z"/>
		<path class="st0" d="M57.4,55.5v-5H65V13.2h-7.6v-5h20.6v5h-7.6v37.3h7.6v5H57.4z"/>
		<path class="st0" d="M32.3,111.8c-3.5,0-6.7-0.6-9.7-1.8c-3-1.2-5.6-2.9-7.8-5.1c-2.3-2.2-4-4.7-5.2-7.7c-1.2-3-1.9-6.2-1.9-9.6
			s0.6-6.7,1.9-9.6c1.2-3,3-5.5,5.1-7.7c2.2-2.2,4.8-3.8,7.7-5c3-1.2,6.1-1.8,9.5-1.8c2.4,0,4.7,0.3,7.1,1c2.3,0.7,4.4,1.6,6.3,2.8
			c1.9,1.2,3.4,2.6,4.6,4.1L46.4,75c-1.3-1.3-2.7-2.4-4.3-3.4c-1.6-0.9-3.2-1.7-5-2.2s-3.5-0.8-5.2-0.8c-2.7,0-5.1,0.5-7.4,1.4
			c-2.3,0.9-4.3,2.3-6,4c-1.7,1.7-3,3.7-4,6c-0.9,2.3-1.4,4.9-1.4,7.6c0,2.7,0.5,5.1,1.5,7.5c1,2.3,2.3,4.4,4.1,6.1
			c1.8,1.7,3.8,3.1,6.2,4c2.3,0.9,4.9,1.4,7.6,1.4c2.1,0,4.1-0.3,6-0.9c1.9-0.6,3.5-1.5,4.9-2.7c1.4-1.1,2.5-2.5,3.2-4
			c0.8-1.5,1.1-3.2,1.1-4.9v-2.4l1.1,1.4H32.2v-5.2h20.8c0,0.4,0.1,0.8,0.1,1.3c0,0.5,0.1,0.9,0.1,1.4c0,0.5,0,0.9,0,1.3
			c0,2.9-0.5,5.6-1.6,8.1c-1.1,2.5-2.6,4.6-4.5,6.4c-1.9,1.8-4.1,3.2-6.7,4.1C38,111.3,35.3,111.8,32.3,111.8z"/>
		<path class="st0" d="M57.4,111.1v-5H65V68.8h-7.6v-5h20.6v5h-7.6v37.3h7.6v5H57.4z"/>
		<path class="st0" d="M126.3,100.1H89.8v11.7h-4.4V83.3h4.4v12.2h36.5V100.1z"/>
		<path class="st0" d="M126.3,76.4l-41-15.7v-5.2l41-15.6v5l-26.6,10c-0.7,0.3-1.6,0.6-2.6,0.9c-1,0.3-2,0.7-3.1,1.1
			c-1.1,0.4-2.1,0.7-3.1,1.1c-1,0.3-1.9,0.6-2.7,0.9v-1.2c1,0.3,2,0.6,3,1c1,0.3,2,0.7,3,1c1,0.4,2,0.7,3,1.1c1,0.3,2,0.7,2.9,1.1
			l26.3,9.9V76.4z M115,69.7l-4.4-1.7V48.6l4.4-1.9V69.7z"/>
		<path class="st0" d="M126.3,32.4h-41v-4.6h36.5V8.2h4.4V32.4z"/>
	</g>
</g>
<g id="strona_animacje">
</g>
<g id="strona_digital">
</g>
<g id="strona_rysunek">
</g>
</svg>
