<?xml version="1.0" encoding="utf-8"?>
<!-- Generator: Adobe Illustrator 21.0.0, SVG Export Plug-In . SVG Version: 6.00 Build 0)  -->
<svg version="1.0" xmlns="http://www.w3.org/2000/svg" xmlns:xlink="http://www.w3.org/1999/xlink" x="0px" y="0px"
	 viewBox="0 0 134 102.1" style="enable-background:new 0 0 134 102.1;" xml:space="preserve">
<style type="text/css">
	.st0{fill:#FAF4E9;}
	.st1{fill:none;stroke:#1E1F21;stroke-width:2;stroke-miterlimit:10;}
	.st2{fill:#62AE54;}
	.st3{fill:#E94546;}
	.st4{opacity:0.52;fill:#E94546;}
	.st5{fill:#1E1F21;}
	.st6{display:none;fill:url(#SVGID_1_);}
	.st7{fill:none;stroke:#FAF4E9;stroke-width:2;stroke-miterlimit:10;}
	.st8{display:none;fill:#FAF4E9;}
	.st9{display:none;}
	.st10{display:inline;}
	.st11{fill:url(#SVGID_2_);}
	.st12{clip-path:url(#SVGID_4_);}
	.st13{clip-path:url(#SVGID_6_);fill:#63A38A;}
	.st14{clip-path:url(#SVGID_6_);fill:url(#);}
	.st15{clip-path:url(#SVGID_6_);}
	.st16{clip-path:url(#SVGID_8_);fill:none;stroke:url(#);stroke-miterlimit:10;}
	.st17{clip-path:url(#SVGID_8_);}
	.st18{clip-path:url(#SVGID_10_);}
	.st19{clip-path:url(#SVGID_12_);fill:#EDDFB1;}
	.st20{clip-path:url(#SVGID_12_);fill:#63A38A;}
	.st21{clip-path:url(#SVGID_12_);fill:#E83F39;}
	.st22{clip-path:url(#SVGID_12_);fill:#334A5B;}
	.st23{clip-path:url(#SVGID_14_);}
	.st24{clip-path:url(#SVGID_16_);fill:#EDDFB1;}
	.st25{clip-path:url(#SVGID_8_);fill:#334A5B;}
	.st26{clip-path:url(#SVGID_8_);fill:url(#);}
	.st27{clip-path:url(#SVGID_18_);fill:url(#);}
	.st28{clip-path:url(#SVGID_20_);fill:#334A5B;}
	.st29{clip-path:url(#SVGID_20_);fill:#63A38A;}
	.st30{clip-path:url(#SVGID_20_);fill:none;stroke:#EDDFB1;stroke-width:8;stroke-miterlimit:10;}
	.st31{display:none;opacity:0.48;}
	.st32{fill:#46BBC2;}
	.st33{display:inline;fill:#46BBC2;}
</style>
<g id="Warstwa_1">
</g>
<g id="strona_główna">
	<g>
		<path class="st0" d="M7.6,43.7V9.9h3.8v33.8H7.6z M9.5,13.6V9.9h19.3v3.7H9.5z M9.5,28.6v-3.7h17.1v3.7H9.5z"/>
		<path class="st0" d="M49.7,44.1c-2.4,0-4.6-0.4-6.6-1.3c-2-0.9-3.8-2-5.3-3.6c-1.5-1.5-2.7-3.4-3.5-5.5c-0.8-2.1-1.2-4.4-1.2-6.9
			s0.4-4.8,1.2-6.9c0.8-2.1,2-3.9,3.5-5.5c1.5-1.6,3.2-2.8,5.3-3.6c2-0.9,4.2-1.3,6.6-1.3c2.4,0,4.6,0.4,6.6,1.3
			c2,0.9,3.8,2.1,5.3,3.6c1.5,1.6,2.7,3.4,3.5,5.5c0.8,2.1,1.2,4.4,1.2,6.9c0,2.5-0.4,4.8-1.2,6.9c-0.8,2.1-2,3.9-3.5,5.5
			c-1.5,1.6-3.2,2.8-5.3,3.6C54.3,43.7,52.1,44.1,49.7,44.1z M49.7,40.4c1.8,0,3.5-0.3,5.1-1c1.6-0.7,2.9-1.6,4-2.8s2-2.7,2.6-4.3
			c0.6-1.7,0.9-3.5,0.9-5.4c0-2-0.3-3.8-0.9-5.5c-0.6-1.7-1.5-3.1-2.6-4.3s-2.5-2.2-4-2.8c-1.6-0.7-3.3-1-5.1-1s-3.5,0.3-5.1,1
			c-1.6,0.7-2.9,1.6-4,2.8c-1.1,1.2-2,2.7-2.6,4.3c-0.6,1.7-0.9,3.5-0.9,5.5c0,2,0.3,3.8,0.9,5.4c0.6,1.7,1.5,3.1,2.6,4.3
			c1.1,1.2,2.5,2.2,4,2.8C46.2,40.1,47.9,40.4,49.7,40.4z"/>
		<path class="st0" d="M109.9,44c-2.3,0-4.5-0.4-6.5-1.3c-2-0.8-3.7-2-5.2-3.5c-1.5-1.5-2.6-3.3-3.4-5.4s-1.2-4.4-1.2-6.8
			s0.4-4.8,1.2-6.8s2-3.9,3.4-5.4c1.5-1.5,3.2-2.7,5.2-3.6c2-0.8,4.2-1.3,6.5-1.3c2.4,0,4.6,0.4,6.5,1.3c2,0.8,3.7,2,5.2,3.6
			c1.5,1.5,2.6,3.3,3.4,5.4c0.8,2.1,1.2,4.4,1.2,6.8c0,2.4-0.4,4.7-1.2,6.8c-0.8,2.1-2,3.9-3.4,5.4c-1.5,1.5-3.2,2.7-5.2,3.6
			C114.5,43.6,112.3,44,109.9,44z M109.9,40.4c1.8,0,3.5-0.3,5-1c1.5-0.7,2.9-1.6,4-2.8c1.1-1.2,2-2.6,2.6-4.3
			c0.6-1.6,0.9-3.4,0.9-5.4c0-2-0.3-3.8-0.9-5.4c-0.6-1.6-1.5-3.1-2.6-4.3c-1.1-1.2-2.4-2.1-4-2.8c-1.5-0.7-3.2-1-5-1
			c-1.8,0-3.5,0.3-5,1c-1.5,0.7-2.9,1.6-4,2.8c-1.1,1.2-2,2.6-2.6,4.3c-0.6,1.6-0.9,3.4-0.9,5.4c0,1.9,0.3,3.7,0.9,5.4
			c0.6,1.6,1.5,3.1,2.6,4.3c1.1,1.2,2.4,2.1,4,2.8C106.5,40,108.1,40.4,109.9,40.4z"/>
		<g>
			<path class="st0" d="M22.6,85.7c0,1.1-0.2,2.1-0.6,3c-0.4,0.9-0.9,1.7-1.6,2.4c-0.7,0.7-1.5,1.2-2.4,1.6c-0.9,0.4-1.9,0.6-3,0.6
				s-2.1-0.2-3-0.6c-0.9-0.4-1.7-0.9-2.4-1.6c-0.7-0.7-1.2-1.5-1.6-2.4c-0.4-0.9-0.6-1.9-0.6-3c0-0.7,0.1-1.5,0.3-2.2
				c0.2-0.7,0.5-1.4,0.9-2s0.8-1.1,1.3-1.4l1.1,1.1c-0.4,0.4-0.8,0.8-1,1.3c-0.3,0.5-0.5,1-0.7,1.5c-0.2,0.5-0.3,1.1-0.3,1.6
				c0,0.8,0.1,1.6,0.4,2.3c0.3,0.7,0.7,1.3,1.2,1.9c0.5,0.5,1.1,0.9,1.9,1.2c0.7,0.3,1.5,0.4,2.4,0.4c0.8,0,1.6-0.1,2.3-0.5
				s1.4-0.7,1.9-1.3c0.5-0.6,1-1.2,1.2-1.9c0.3-0.7,0.4-1.5,0.4-2.4c0-0.7-0.1-1.3-0.3-1.9s-0.5-1.1-0.8-1.5c-0.4-0.4-0.8-0.8-1.2-1
				c-0.5-0.2-1-0.4-1.5-0.4h-0.7l0.4-0.3v5.2h-1.6v-6.5c0.1,0,0.2,0,0.4,0c0.1,0,0.3,0,0.4,0c0.1,0,0.3,0,0.4,0
				c0.9,0,1.7,0.2,2.5,0.5c0.8,0.3,1.4,0.8,2,1.4c0.6,0.6,1,1.3,1.3,2.1C22.5,83.9,22.6,84.8,22.6,85.7z"/>
			<path class="st0" d="M22.4,76.2H7.7v-5.8c0-0.9,0.2-1.6,0.6-2.3c0.4-0.7,0.9-1.2,1.6-1.6s1.5-0.6,2.3-0.6c0.8,0,1.5,0.2,2.2,0.6
				c0.7,0.4,1.2,0.9,1.6,1.6c0.4,0.7,0.6,1.4,0.6,2.3v4.2h5.8V76.2z M15,74.6v-4.4c0-0.5-0.1-1-0.4-1.4c-0.2-0.4-0.6-0.7-1-0.9
				c-0.4-0.2-0.9-0.3-1.4-0.3c-0.6,0-1.1,0.1-1.5,0.4c-0.4,0.3-0.8,0.6-1,1.1c-0.3,0.5-0.4,1-0.4,1.6v3.9H15z M22.4,67.2L16,70.9
				l-0.5-1.6l7-4.1V67.2z"/>
			<path class="st0" d="M22.4,64L7.7,58.3v-1.9l14.7-5.6v1.8l-9.5,3.6c-0.3,0.1-0.6,0.2-0.9,0.3c-0.4,0.1-0.7,0.2-1.1,0.4
				c-0.4,0.1-0.8,0.3-1.1,0.4c-0.4,0.1-0.7,0.2-1,0.3v-0.4c0.3,0.1,0.7,0.2,1.1,0.3c0.4,0.1,0.7,0.2,1.1,0.4
				c0.4,0.1,0.7,0.3,1.1,0.4c0.4,0.1,0.7,0.3,1,0.4l9.4,3.6V64z M18.4,61.6L16.8,61v-7l1.6-0.7V61.6z"/>
		</g>
		<path class="st0" d="M30.3,93.3V50.9H35v42.4H30.3z M32.7,55.5v-4.6H57v4.6H32.7z M32.7,74.4v-4.7h21.5v4.7H32.7z"/>
		<path class="st0" d="M64.3,93.3v-4.5h6.8V55.4h-6.8v-4.5h18.4v4.5h-6.8v33.5h6.8v4.5H64.3z"/>
		<path class="st0" d="M88.5,93.4l16.3-42.5h5.4l16.1,42.5h-5.2l-10.4-27.6c-0.3-0.8-0.6-1.7-0.9-2.7c-0.3-1-0.7-2.1-1.1-3.2
			c-0.4-1.1-0.7-2.2-1.1-3.2c-0.3-1.1-0.7-2-0.9-2.8h1.2c-0.3,1-0.7,2-1,3.1c-0.3,1-0.7,2.1-1.1,3.1c-0.4,1-0.7,2.1-1.1,3.1
			c-0.4,1-0.7,2-1.1,3L93.4,93.4H88.5z M95.5,81.7l1.8-4.6h20.1l1.9,4.6H95.5z"/>
		<path class="st0" d="M78.1,43.2V13.5h-9.9V9.9h23.1v3.6h-9.5v29.7H78.1z"/>
	</g>
</g>
<g id="strona_animacje">
</g>
<g id="strona_digital">
</g>
<g id="strona_rysunek">
</g>
</svg>
