<?xml version="1.0" encoding="utf-8"?>
<!-- Generator: Adobe Illustrator 21.0.0, SVG Export Plug-In . SVG Version: 6.00 Build 0)  -->
<svg version="1.1" id="Warstwa_1" xmlns="http://www.w3.org/2000/svg" xmlns:xlink="http://www.w3.org/1999/xlink" x="0px" y="0px"
	 viewBox="0 0 595.3 595.3" style="enable-background:new 0 0 595.3 595.3;" xml:space="preserve">
<style type="text/css">
	.st0{fill:none;stroke:#010202;stroke-width:3;stroke-miterlimit:10;}
	.st1{display:none;opacity:0.46;}
	.st2{opacity:0.46;}
	.st3{display:inline;}
	.st4{display:inline;clip-path:url(#SVGID_2_);}
	.st5{fill:none;stroke:#20679F;stroke-width:3;stroke-miterlimit:10;}
	.st6{fill:none;stroke:#E53D3E;stroke-width:3;stroke-miterlimit:10;}
	.st7{fill:none;stroke:#010202;stroke-width:11;stroke-miterlimit:10;}
</style>
<polyline class="st0" points="-1188.2,20.6 -1290.9,97.6 -1188.2,174.6 "/>
<rect x="-1342.2" y="72" class="st0" width="102.7" height="51.3"/>
<line class="st0" x1="-1290.9" y1="174.6" x2="-1290.9" y2="20.6"/>
<polyline class="st0" points="-986.8,201.3 -1089.5,278.3 -986.8,355.3 "/>
<path class="st0" d="M-1050.2,304h-78.7c-6.6,0-12-5.4-12-12v-27.3c0-6.6,5.4-12,12-12h78.7c6.6,0,12,5.4,12,12V292
	C-1038.2,298.6-1043.6,304-1050.2,304z"/>
<line class="st0" x1="-1089.5" y1="355.3" x2="-1089.5" y2="201.3"/>
<polyline class="st0" points="-1140.8,355.3 -1038.2,278.3 -1140.8,201.3 "/>
<polyline class="st0" points="-1203.3,208.4 -1305.9,285.4 -1203.3,362.4 "/>
<path class="st0" d="M-1275,311h-61.8c-11.2,0-20.4-9.2-20.4-20.4v-10.5c0-11.2,9.2-20.4,20.4-20.4h61.8c11.2,0,20.4,9.2,20.4,20.4
	v10.5C-1254.6,301.8-1263.8,311-1275,311z"/>
<line class="st0" x1="-1305.9" y1="362.4" x2="-1305.9" y2="208.4"/>
<polyline class="st0" points="-1188.2,387.8 -1290.9,464.8 -1188.2,541.8 "/>
<path class="st0" d="M-1265.2,490.4h-51.3c-14.1,0-25.7-11.5-25.7-25.7v0c0-14.1,11.5-25.7,25.7-25.7h51.3
	c14.1,0,25.7,11.5,25.7,25.7v0C-1239.5,478.9-1251.1,490.4-1265.2,490.4z"/>
<line class="st0" x1="-1290.9" y1="541.8" x2="-1290.9" y2="387.8"/>
<polyline class="st0" points="-779.2,208.4 -881.9,285.4 -779.2,362.4 "/>
<path class="st0" d="M-847.9,311h-68c-9.5,0-17.4-7.8-17.4-17.4V277c0-9.5,7.8-17.4,17.4-17.4h68c9.5,0,17.4,7.8,17.4,17.4v16.6
	C-830.6,303.2-838.4,311-847.9,311z"/>
<line class="st0" x1="-881.9" y1="362.4" x2="-881.9" y2="208.4"/>
<polyline class="st0" points="-881.9,362.4 -779.2,285.4 -881.9,208.4 "/>
<polyline class="st0" points="-800.5,14.9 -903.2,91.9 -800.5,168.9 "/>
<rect x="-954.5" y="66.2" class="st0" width="102.7" height="51.3"/>
<line class="st0" x1="-903.2" y1="168.9" x2="-903.2" y2="14.9"/>
<polyline class="st0" points="-903.2,168.9 -800.5,91.9 -903.2,14.9 "/>
<polyline class="st0" points="-989,19.6 -1091.7,96.6 -989,173.6 "/>
<rect x="-1143.1" y="71" class="st0" width="102.7" height="51.3"/>
<line class="st0" x1="-1091.7" y1="173.6" x2="-1091.7" y2="19.6"/>
<polyline class="st0" points="-1143,173.6 -1040.4,96.6 -1143,19.6 "/>
<polyline class="st0" points="-983.2,387.8 -1085.9,464.8 -983.2,541.8 "/>
<path class="st0" d="M-1060.2,490.4h-51.3c-14.1,0-25.7-11.5-25.7-25.7v0c0-14.1,11.5-25.7,25.7-25.7h51.3
	c14.1,0,25.7,11.5,25.7,25.7v0C-1034.5,478.9-1046.1,490.4-1060.2,490.4z"/>
<line class="st0" x1="-1085.9" y1="541.8" x2="-1085.9" y2="387.8"/>
<polyline class="st0" points="-1137.2,541.8 -1034.5,464.8 -1137.2,387.8 "/>
<polyline class="st0" points="-788,392.9 -890.7,469.9 -788,546.9 "/>
<path class="st0" d="M-865,495.6h-51.3c-14.1,0-25.7-11.5-25.7-25.7v0c0-14.1,11.5-25.7,25.7-25.7h51.3c14.1,0,25.7,11.5,25.7,25.7
	v0C-839.4,484-850.9,495.6-865,495.6z"/>
<line class="st0" x1="-890.7" y1="546.9" x2="-890.7" y2="392.9"/>
<polyline class="st0" points="-890.7,546.9 -788,469.9 -890.7,392.9 "/>
<rect x="-1592.7" y="66.2" class="st0" width="102.7" height="51.3"/>
<polyline class="st0" points="-1541.3,14.9 -1541.3,168.9 -1438.7,168.9 -1541.3,91.9 -1438.7,14.9 "/>
<path class="st0" d="M-1525.5,305.3h-61.8c-11.2,0-20.4-9.2-20.4-20.4v-10.5c0-11.2,9.2-20.4,20.4-20.4h61.8
	c11.2,0,20.4,9.2,20.4,20.4v10.5C-1505.1,296.1-1514.3,305.3-1525.5,305.3z"/>
<polyline class="st0" points="-1556.4,202.6 -1556.4,356.6 -1453.7,356.6 -1556.4,279.6 -1453.7,202.6 "/>
<path class="st0" d="M-1515.7,484.7h-51.3c-14.1,0-25.7-11.5-25.7-25.7v0c0-14.1,11.5-25.7,25.7-25.7h51.3
	c14.1,0,25.7,11.5,25.7,25.7v0C-1490,473.2-1501.6,484.7-1515.7,484.7z"/>
<polyline class="st0" points="-1541.3,382 -1541.3,536 -1438.7,536 -1541.3,459 -1438.7,382 "/>
<polyline class="st0" points="-1649.4,21.9 -1752.1,98.9 -1649.4,175.9 "/>
<path class="st0" d="M-1712.8,124.6h-78.7c-6.6,0-12-5.4-12-12V85.2c0-6.6,5.4-12,12-12h78.7c6.6,0,12,5.4,12,12v27.3
	C-1700.8,119.2-1706.2,124.6-1712.8,124.6z"/>
<line class="st0" x1="-1726.8" y1="175.9" x2="-1726.8" y2="21.9"/>
<polyline class="st0" points="-1803.4,175.9 -1700.8,98.9 -1803.4,21.9 "/>
<polyline class="st0" points="-1651.7,215.4 -1754.3,292.4 -1651.7,369.4 "/>
<path class="st0" d="M-1728.7,318h-51.3c-14.1,0-25.7-11.5-25.7-25.7v0c0-14.1,11.5-25.7,25.7-25.7h51.3c14.1,0,25.7,11.5,25.7,25.7
	v0C-1703,306.5-1714.5,318-1728.7,318z"/>
<line class="st0" x1="-1730" y1="369.4" x2="-1730" y2="215.4"/>
<polyline class="st0" points="-1805.7,369.4 -1703,292.4 -1805.7,215.4 "/>
<polyline class="st0" points="-1643.6,394.8 -1746.3,471.8 -1643.6,548.8 "/>
<rect x="-1797.6" y="446.1" class="st0" width="102.7" height="51.3"/>
<line class="st0" x1="-1720.8" y1="548.8" x2="-1720.8" y2="394.8"/>
<polyline class="st0" points="-1797.6,548.8 -1694.9,471.8 -1797.6,394.8 "/>
<polyline class="st0" points="-1805.7,-209 -1728.7,-106.3 -1651.7,-209 "/>
<path class="st0" d="M-1703-145.7V-67c0,6.6-5.4,12-12,12h-27.3c-6.6,0-12-5.4-12-12v-78.7c0-6.6,5.4-12,12-12h27.3
	C-1708.4-157.7-1703-152.3-1703-145.7z"/>
<line class="st0" x1="-1651.7" y1="-131.6" x2="-1805.7" y2="-131.6"/>
<polyline class="st0" points="-1651.7,-55 -1728.7,-157.7 -1805.7,-55 "/>
<polyline class="st0" points="-1612.2,-206.8 -1535.2,-104.1 -1458.2,-206.8 "/>
<rect x="-1586.5" y="-129.8" transform="matrix(-1.714086e-10 -1 1 -1.714086e-10 -1431.0992 -1639.3125)" class="st0" width="102.7" height="51.3"/>
<line class="st0" x1="-1458.2" y1="-128.5" x2="-1612.2" y2="-128.5"/>
<polyline class="st0" points="-1458.2,-52.8 -1535.2,-155.4 -1612.2,-52.8 "/>
<polyline class="st0" points="-1432.8,-214.8 -1355.8,-112.2 -1278.8,-214.8 "/>
<path class="st0" d="M-1330.1-137.8v51.3c0,14.1-11.5,25.7-25.7,25.7l0,0c-14.1,0-25.7-11.5-25.7-25.7v-51.3
	c0-14.1,11.5-25.7,25.7-25.7l0,0C-1341.7-163.5-1330.1-152-1330.1-137.8z"/>
<line class="st0" x1="-1278.8" y1="-137.6" x2="-1432.8" y2="-137.6"/>
<polyline class="st0" points="-1278.8,-60.8 -1355.8,-163.5 -1432.8,-60.8 "/>
<polyline class="st0" points="-1278.8,-245.9 -1355.8,-348.6 -1432.8,-245.9 "/>
<path class="st0" d="M-1381.4-309.2v-78.7c0-6.6,5.4-12,12-12h27.3c6.6,0,12,5.4,12,12v78.7c0,6.6-5.4,12-12,12h-27.3
	C-1376-297.2-1381.4-302.6-1381.4-309.2z"/>
<line class="st0" x1="-1432.8" y1="-323.3" x2="-1278.8" y2="-323.3"/>
<polyline class="st0" points="-1432.8,-399.9 -1355.8,-297.2 -1278.8,-399.9 "/>
<polyline class="st0" points="-1472.2,-248.1 -1549.2,-350.8 -1626.2,-248.1 "/>
<rect x="-1600.6" y="-376.4" transform="matrix(-3.136044e-10 1 -1 -3.136044e-10 -1900.0173 1198.4572)" class="st0" width="102.7" height="51.3"/>
<line class="st0" x1="-1626.2" y1="-326.4" x2="-1472.2" y2="-326.4"/>
<polyline class="st0" points="-1626.2,-402.1 -1549.2,-299.4 -1472.2,-402.1 "/>
<polyline class="st0" points="-1651.7,-240 -1728.7,-342.7 -1805.7,-240 "/>
<path class="st0" d="M-1754.3-317v-51.3c0-14.1,11.5-25.7,25.7-25.7h0c14.1,0,25.7,11.5,25.7,25.7v51.3c0,14.1-11.5,25.7-25.7,25.7
	h0C-1742.8-291.4-1754.3-302.9-1754.3-317z"/>
<line class="st0" x1="-1805.7" y1="-317.3" x2="-1651.7" y2="-317.3"/>
<polyline class="st0" points="-1805.7,-394 -1728.7,-291.4 -1651.7,-394 "/>
<polyline class="st0" points="-595.1,205.8 -697.8,282.8 -595.1,359.8 "/>
<path class="st0" d="M-663.8,308.4h-68c-9.5,0-17.4-7.8-17.4-17.4v-16.6c0-9.5,7.8-17.4,17.4-17.4h68c9.5,0,17.4,7.8,17.4,17.4v16.6
	C-646.5,300.6-654.3,308.4-663.8,308.4z"/>
<line class="st0" x1="-697.8" y1="359.8" x2="-697.8" y2="205.8"/>
<polyline class="st0" points="-697.8,359.8 -595.1,282.8 -697.8,205.8 "/>
<polyline class="st0" points="-616.4,12.3 -719.1,89.3 -616.4,166.3 "/>
<rect x="-770.4" y="63.7" class="st0" width="102.7" height="51.3"/>
<line class="st0" x1="-719.1" y1="166.3" x2="-719.1" y2="12.3"/>
<polyline class="st0" points="-719.1,166.3 -616.4,89.3 -719.1,12.3 "/>
<polyline class="st0" points="-603.9,390.4 -706.6,467.4 -603.9,544.4 "/>
<path class="st0" d="M-680.9,493h-51.3c-14.1,0-25.7-11.5-25.7-25.7v0c0-14.1,11.5-25.7,25.7-25.7h51.3c14.1,0,25.7,11.5,25.7,25.7
	v0C-655.3,481.5-666.8,493-680.9,493z"/>
<line class="st0" x1="-706.6" y1="544.4" x2="-706.6" y2="390.4"/>
<polyline class="st0" points="-706.6,544.4 -603.9,467.4 -706.6,390.4 "/>
<line class="st0" x1="-616.4" y1="167.1" x2="-616.4" y2="13.1"/>
<line class="st0" x1="-595.1" y1="359.8" x2="-595.1" y2="205.8"/>
<line class="st0" x1="-603.9" y1="544.4" x2="-603.9" y2="390.4"/>
<polyline class="st0" points="-441.1,200.8 -543.8,277.8 -441.1,354.8 "/>
<path class="st0" d="M-458.5,306.3h-68c-9.5,0-17.4-7.8-17.4-17.4v-16.6c0-9.5,7.8-17.4,17.4-17.4h68c9.5,0,17.4,7.8,17.4,17.4v16.6
	C-441.1,298.5-448.9,306.3-458.5,306.3z"/>
<line class="st0" x1="-543.8" y1="354.8" x2="-543.8" y2="200.8"/>
<polyline class="st0" points="-543.8,354.8 -441.1,277.8 -543.8,200.8 "/>
<polyline class="st0" points="-462.4,7.3 -565,84.3 -462.4,161.3 "/>
<rect x="-565.1" y="58.7" class="st0" width="102.7" height="51.3"/>
<line class="st0" x1="-565.1" y1="161.3" x2="-565.1" y2="7.3"/>
<polyline class="st0" points="-565,161.3 -462.4,84.3 -565,7.3 "/>
<polyline class="st0" points="-449.9,385.4 -552.6,462.4 -449.9,539.4 "/>
<path class="st0" d="M-475.6,488h-51.3c-14.1,0-25.7-11.5-25.7-25.7v0c0-14.1,11.5-25.7,25.7-25.7h51.3c14.1,0,25.7,11.5,25.7,25.7
	v0C-449.9,476.5-461.5,488-475.6,488z"/>
<line class="st0" x1="-552.6" y1="539.4" x2="-552.6" y2="385.4"/>
<polyline class="st0" points="-552.6,539.4 -449.9,462.4 -552.6,385.4 "/>
<line class="st0" x1="-462.4" y1="162.1" x2="-462.4" y2="8.1"/>
<line class="st0" x1="-441.1" y1="354.8" x2="-441.1" y2="200.8"/>
<line class="st0" x1="-449.9" y1="539.4" x2="-449.9" y2="385.4"/>
<polyline class="st0" points="-278.3,11.8 -381,88.8 -278.3,165.8 "/>
<line class="st0" x1="-381" y1="165.8" x2="-381" y2="11.8"/>
<polyline class="st0" points="-381,165.8 -278.3,88.8 -381,11.8 "/>
<line class="st0" x1="-278.3" y1="166.6" x2="-278.3" y2="12.6"/>
<polyline class="st0" points="-681.5,-37.7 -758.5,-140.4 -835.5,-37.7 "/>
<rect x="-809.8" y="-166" transform="matrix(-1.836970e-16 1 -1 -1.836970e-16 -898.8126 618.0954)" class="st0" width="102.7" height="51.3"/>
<line class="st0" x1="-835.5" y1="-140.4" x2="-681.5" y2="-140.4"/>
<polyline class="st0" points="-869.2,-52.8 -946.2,-155.4 -1023.2,-52.8 "/>
<path class="st0" d="M-971.8-124.5v-61.8c0-11.2,9.2-20.4,20.4-20.4h10.5c11.2,0,20.4,9.2,20.4,20.4v61.8c0,11.2-9.2,20.4-20.4,20.4
	h-10.5C-962.6-104.1-971.8-113.3-971.8-124.5z"/>
<line class="st0" x1="-1023.2" y1="-155.4" x2="-869.2" y2="-155.4"/>
<polyline class="st0" points="-1048.6,-37.7 -1125.6,-140.4 -1202.6,-37.7 "/>
<path class="st0" d="M-1151.3-114.7V-166c0-14.1,11.5-25.7,25.7-25.7l0,0c14.1,0,25.7,11.5,25.7,25.7v51.3
	c0,14.1-11.5,25.7-25.7,25.7l0,0C-1139.7-89-1151.3-100.6-1151.3-114.7z"/>
<line class="st0" x1="-1202.6" y1="-140.4" x2="-1048.6" y2="-140.4"/>
<polyline class="st0" points="-1170.1,639 -1272.7,716 -1170.1,793 "/>
<rect x="-1324.1" y="690.4" class="st0" width="102.7" height="51.3"/>
<line class="st0" x1="-1272.7" y1="793" x2="-1272.7" y2="639"/>
<polyline class="st0" points="-1185.1,826.8 -1287.8,903.8 -1185.1,980.8 "/>
<path class="st0" d="M-1256.9,929.4h-61.8c-11.2,0-20.4-9.2-20.4-20.4v-10.5c0-11.2,9.2-20.4,20.4-20.4h61.8
	c11.2,0,20.4,9.2,20.4,20.4V909C-1236.5,920.2-1245.7,929.4-1256.9,929.4z"/>
<line class="st0" x1="-1287.8" y1="980.8" x2="-1287.8" y2="826.8"/>
<polyline class="st0" points="-1170.1,1006.2 -1272.7,1083.2 -1170.1,1160.2 "/>
<path class="st0" d="M-1247.1,1108.9h-51.3c-14.1,0-25.7-11.5-25.7-25.7l0,0c0-14.1,11.5-25.7,25.7-25.7h51.3
	c14.1,0,25.7,11.5,25.7,25.7l0,0C-1221.4,1097.3-1232.9,1108.9-1247.1,1108.9z"/>
<line class="st0" x1="-1272.7" y1="1160.2" x2="-1272.7" y2="1006.2"/>
<polyline class="st0" points="-1375.4,793 -1272.7,716 -1375.4,639 "/>
<polyline class="st0" points="-1390.5,980.8 -1287.8,903.8 -1390.5,826.8 "/>
<polyline class="st0" points="-1375.4,1160.2 -1272.7,1083.2 -1375.4,1006.2 "/>
<polyline class="st0" points="-278.3,220.2 -380.9,297.2 -278.3,374.2 "/>
<line class="st0" x1="-381" y1="374.2" x2="-381" y2="220.2"/>
<polyline class="st0" points="-380.9,374.2 -278.3,297.2 -380.9,220.2 "/>
<line class="st0" x1="-278.3" y1="375" x2="-278.3" y2="221"/>
<polyline class="st0" points="-252.2,348.6 -329.2,245.9 -406.2,348.6 "/>
<line class="st0" x1="-406.2" y1="245.9" x2="-252.2" y2="245.9"/>
<polyline class="st0" points="-406.2,245.9 -329.2,348.6 -252.2,245.9 "/>
<line class="st0" x1="-407" y1="348.6" x2="-253" y2="348.6"/>
<g class="st1">
	<defs>
		<rect id="SVGID_1_" x="-8.5" y="-8.5" class="st2" width="612.3" height="612.3"/>
	</defs>
	<clipPath id="SVGID_2_" class="st3">
		<use xlink:href="#SVGID_1_"  style="overflow:visible;"/>
	</clipPath>
	<g class="st4">
		<line class="st5" x1="198.4" y1="0" x2="198.4" y2="595.3"/>
		<line class="st6" x1="297.6" y1="-23.8" x2="297.6" y2="646.3"/>
		<line class="st5" x1="396.9" y1="-105.7" x2="396.9" y2="616.9"/>
		<line class="st5" x1="198.4" y1="-132" x2="198.4" y2="609.9"/>
		<line class="st5" x1="660.1" y1="198.4" x2="30" y2="198.4"/>
		<line class="st6" x1="685.3" y1="297.6" x2="-24" y2="297.6"/>
		<line class="st5" x1="772" y1="396.9" x2="7.2" y2="396.9"/>
		<line class="st5" x1="799.8" y1="198.4" x2="14.6" y2="198.4"/>
		<line class="st6" x1="-16" y1="446.3" x2="637" y2="446.3"/>
		<line class="st6" x1="148.6" y1="646.3" x2="148.6" y2="-61"/>
		<line class="st6" x1="611.6" y1="148.7" x2="-41.4" y2="148.7"/>
		<line class="st6" x1="447" y1="-51.4" x2="447" y2="655.9"/>
	</g>
</g>
<g>
	<path class="st0" d="M-800.5,1022.7L-800.5,1022.7c-51.5,0-93.3-41.8-93.3-93.3v0c0-51.5,41.8-93.3,93.3-93.3h0
		c51.5,0,93.3,41.8,93.3,93.3v0C-707.2,981-749,1022.7-800.5,1022.7z"/>
	<line class="st0" x1="-847" y1="848.6" x2="-847" y2="1010.3"/>
	<polyline class="st0" points="-763.3,843.9 -847,929.8 -763.7,1015.2 	"/>
	<line class="st0" x1="-847" y1="976.4" x2="-801.6" y2="976.4"/>
	<path class="st0" d="M-753.4,929.7c0-25.8-21.7-46.8-47.3-46.8c-11.9,0-46.3,0.8-46.3,0.8s0,32.1,0,46c0,12.1,0,46.8,0,46.8
		s32.8,0,46.3,0C-775.1,976.4-753.4,955.5-753.4,929.7z"/>
</g>
<g>
	<path class="st0" d="M-637.1,929.7L-637.1,929.7c0-51.5,41.8-93.3,93.3-93.3h0c51.5,0,93.3,41.8,93.3,93.3v0
		c0,51.5-41.8,93.3-93.3,93.3h0C-595.3,1022.9-637.1,981.2-637.1,929.7z"/>
	<line class="st0" x1="-463" y1="883.1" x2="-624.6" y2="883.1"/>
	<polyline class="st0" points="-458.2,966.8 -544.2,883.1 -629.6,966.4 	"/>
	<line class="st0" x1="-590.8" y1="883.1" x2="-590.8" y2="928.6"/>
	<path class="st0" d="M-544,976.7c25.8,0,46.8-21.7,46.8-47.3c0-11.9-0.8-46.3-0.8-46.3s-32.1,0-46,0c-12.1,0-46.8,0-46.8,0
		s0,32.8,0,46.3C-590.8,955-569.9,976.7-544,976.7z"/>
</g>
<g>
	<path class="st0" d="M-219.8,936.5L-219.8,936.5c0,51.5-41.8,93.3-93.3,93.3h0c-51.5,0-93.3-41.8-93.3-93.3v0
		c0-51.5,41.8-93.3,93.3-93.3h0C-261.6,843.3-219.8,885-219.8,936.5z"/>
	<line class="st0" x1="-394" y1="983.1" x2="-232.3" y2="983.1"/>
	<polyline class="st0" points="-398.7,899.4 -312.7,983.1 -227.4,899.8 	"/>
	<line class="st0" x1="-266.1" y1="983.1" x2="-266.1" y2="937.6"/>
	<path class="st0" d="M-312.9,889.5c-25.8,0-46.8,21.7-46.8,47.3c0,11.9,0.8,46.3,0.8,46.3s32.1,0,46,0c12.1,0,46.8,0,46.8,0
		s0-32.8,0-46.3C-266.1,911.2-287.1,889.5-312.9,889.5z"/>
</g>
<rect x="-175.7" y="867.3" class="st0" width="165.7" height="165.7"/>
<path class="st0" d="M-65.6,922.3c0-30.4-25.5-55-55.6-55c-13.9,0-54.5,0.1-54.5,0.1s0,38.6,0,54.9c0,14.3,0,55,0,55s38.6,0,54.5,0
	C-91.1,977.3-65.6,952.7-65.6,922.3z"/>
<polyline class="st0" points="-65.2,867.3 -175.7,922.3 -10,1033 "/>
<path class="st0" d="M122.2,918.1c0-31.4-26.3-56.8-57.4-56.8c-14.4,0-56.3,0.1-56.3,0.1s0,39.8,0,56.7c0,14.7,0,56.8,0,56.8
	s39.8,0,56.3,0C95.8,974.8,122.2,949.4,122.2,918.1z"/>
<polyline class="st0" points="114.7,865.2 8.5,918.1 149.3,1012.1 "/>
<path class="st0" d="M179.5,947.6c0-47.2-39.6-85.4-86.4-85.4c-21.7,0-84.6,0.2-84.6,0.2s0,59.9,0,85.2c0,22.2,0,85.4,0,85.4
	s59.9,0,84.6,0C139.9,1033,179.5,994.8,179.5,947.6z"/>
<path class="st0" d="M294.9,861.6c-47.3,0-85.6,39.7-85.6,86.6c0,21.7,0.2,84.8,0.2,84.8s60,0,85.4,0c22.2,0,85.6,0,85.6,0
	s0-60,0-84.8C380.5,901.3,342.2,861.6,294.9,861.6z"/>
<polyline class="st0" points="325.7,867.5 209.3,947.2 338,1033 338,873.6 "/>
<path class="st0" d="M209.3,944.2c0,17.1,0,45.8,0,45.8s37.5,0,53,0c29.3,0,54.1-24,54.1-53.5S291.6,883,262.3,883
	c-5.2,0-14.3,0-23.4,0"/>
<line class="st7" x1="499.9" y1="181.1" x2="95.4" y2="181.1"/>
<line class="st7" x1="296.6" y1="181.1" x2="83" y2="389.6"/>
<line class="st7" x1="180.1" y1="181.1" x2="180.1" y2="294.9"/>
<path class="st7" d="M297.1,415.4c64.6,0,117-54.3,117-118.3c0-29.7-2-116-2-116s-80.3,0-115,0c-30.4,0-117,0-117,0s0,82,0,116
	C180.1,361.1,232.4,415.4,297.1,415.4z"/>
<circle class="st7" cx="297.6" cy="297.6" r="232"/>
<line class="st7" x1="511.8" y1="390.6" x2="296.6" y2="181.1"/>
</svg>
